<svg xmlns="http://www.w3.org/2000/svg" width="129" height="30.74" viewBox="0 0 129 30.74"><g transform="translate(-215.45 -52.9)"><path d="M7.4-13.4a3.345,3.345,0,0,0,.018-.657q-.018-.48-.018-.586a1.163,1.163,0,0,0-.284.071q-.213.071-.249.142a1.674,1.674,0,0,1-.267.089q-.2.053-.426.124t-.426.142a.965.965,0,0,1-.3.071,1.187,1.187,0,0,1-.373.178,1.187,1.187,0,0,0-.373.178,1.891,1.891,0,0,0-.124.515q-.053.373-.124.782t-.142.782q-.071.373-.107.515v.267q0,.2-.018.426t-.036.426a.847.847,0,0,1-.053.267,1.485,1.485,0,0,1-.071.249q-.071.213-.142.249-.071.107-.231.32a2.512,2.512,0,0,0-.2.284q-.071.071-.391.355a1.83,1.83,0,0,1-.426.32q-.071.036-.3.178a.779.779,0,0,1-.338.142q-.142.036-.249.071a2.943,2.943,0,0,1-.32.071l-.107-.036H1.248A1.3,1.3,0,0,1,1-7.681L.857-7.823l.462-5.4a.482.482,0,0,1-.267,0q-.2-.036-.409-.089T.252-13.42q-.178-.053-.213-.124a1.525,1.525,0,0,1-.284-.267q-.213-.231-.284-.3a.353.353,0,0,0,.036-.16v-.16a.824.824,0,0,1,.018-.16.824.824,0,0,0,.018-.16,1.067,1.067,0,0,1,.2-.355,1.469,1.469,0,0,1,.3-.355,1.329,1.329,0,0,1,.178-.231,4.071,4.071,0,0,1,.32-.32q.178-.16.32-.3l.213-.213a.9.9,0,0,1-.089-.409.66.66,0,0,0-.089-.373,2.546,2.546,0,0,0-.053-.426q-.053-.284-.124-.6T.59-18.929a2.409,2.409,0,0,1-.053-.338q-.071-.178-.231-.764t-.231-.764a1.243,1.243,0,0,0-.089-.355q-.089-.249-.2-.533t-.213-.551q-.107-.267-.142-.373a.82.82,0,0,0-.107-.462,1.616,1.616,0,0,0-.213-.391,1.791,1.791,0,0,0-.2-.444q-.2-.373-.267-.551a1.164,1.164,0,0,1-.178-.3,1.164,1.164,0,0,0-.178-.3q-.071-.071-.267-.3a1.294,1.294,0,0,0-.267-.267,1.523,1.523,0,0,0-.3-.391Q-2.8-26.3-2.875-26.3a.932.932,0,0,1-.16-.107q-.089-.071-.053-.142a1.2,1.2,0,0,1-.178-.284,3.162,3.162,0,0,0-.178-.32A1.494,1.494,0,0,0-3.5-27.44a1.888,1.888,0,0,1-.053-.249,2.613,2.613,0,0,0,.107-.284,2.614,2.614,0,0,1,.107-.284l.213-.32a2.118,2.118,0,0,1,.213-.284q.142-.107.48-.338t.373-.267a1.9,1.9,0,0,1,.391-.231q.32-.16.391-.124h.391q.071.036.2.107a.437.437,0,0,0,.2.071,1.965,1.965,0,0,0,.249.3q.213.231.444.5t.426.48a1.357,1.357,0,0,0,.267.249,2,2,0,0,0,.355.231q.284.16.391.231.142.071.551.249a3.106,3.106,0,0,1,.551.284,1.243,1.243,0,0,1,.355.089,5.146,5.146,0,0,0,.551.16q.3.071.586.16a1.608,1.608,0,0,0,.391.089q.249.036.817.178a4.032,4.032,0,0,0,.746.142l1.244.178,2.132.3q1.137.16,2.15.32t1.262.231a1.959,1.959,0,0,1,.355.053q.249.053.515.107t.533.089a3.315,3.315,0,0,0,.373.036l.284.142a1.091,1.091,0,0,0,.426.142.941.941,0,0,1,.338.107q.231.107.3.142a2.112,2.112,0,0,0,.338.231q.267.16.267.231a.728.728,0,0,1,.2.2.728.728,0,0,0,.2.2l.107.213.071.142a1.039,1.039,0,0,0-.036.355v.462a2.514,2.514,0,0,0-.071.426q-.036.32-.036.355l-.071.213-.089.178-.089.178q-.071.107-.231.391a1.108,1.108,0,0,1-.267.355,2.578,2.578,0,0,1-.267.338q-.231.267-.3.338-.178.142-.515.426t-.693.6q-.355.32-.657.586t-.373.338a1.041,1.041,0,0,0-.249.124q-.213.124-.5.284t-.551.32q-.267.16-.409.267l-.32.16-.32.16a2.762,2.762,0,0,1-.515.284q-.444.213-.942.444l-.96.444a4.637,4.637,0,0,1-.6.249.154.154,0,0,1-.071.124q-.071.053-.071.089-.036.178-.089.533t-.089.746q-.036.391-.071.746t-.036.462q0,.107-.018.391t-.036.586q-.018.3-.036.569t-.018.373Q7.538-8.6,7.431-7.93t-.142.622a3.043,3.043,0,0,1-.053-.675q-.018-.622,0-1.421t.053-1.617q.036-.817.071-1.279,0-.071.018-.5T7.4-13.4ZM3.06-23.531q.036.249.16.835T3.5-21.434q.16.675.284,1.279t.2.853q.036.142.124.533t.178.871q.089.48.142.906a5.637,5.637,0,0,1,.053.6.315.315,0,0,0,.142.036H4.8a.158.158,0,0,1,.071.018.247.247,0,0,0,.107.018h.107a1.788,1.788,0,0,0,.267-.071,1.37,1.37,0,0,1,.3-.071q.178-.071.5-.178t.64-.2q.32-.089.551-.16a1.788,1.788,0,0,1,.267-.071q.142-.036.48-.16t.729-.284q.391-.16.729-.284t.515-.2a1.266,1.266,0,0,1,.444-.249,1.907,1.907,0,0,0,.551-.32q.107-.036.3-.124t.391-.2l.355-.2a1.132,1.132,0,0,0,.2-.124.639.639,0,0,0,.2-.107q.16-.107.355-.231a4.246,4.246,0,0,0,.373-.267,1.213,1.213,0,0,0,.249-.249q.071-.036.16-.089a.826.826,0,0,0,.16-.124,1.905,1.905,0,0,1,.2-.267.61.61,0,0,0,.16-.267l.071-.178a.031.031,0,0,1-.036-.036v-.178a1.164,1.164,0,0,1-.142-.178.991.991,0,0,1-.142-.249,1.172,1.172,0,0,0-.2-.071.442.442,0,0,1-.2-.107.685.685,0,0,1-.32-.142.9.9,0,0,0-.213-.107q-.213-.036-.64-.142a3.3,3.3,0,0,1-.569-.178l-.3-.053q-.3-.053-.693-.107l-.8-.107q-.409-.053-.657-.089H9.066a2.587,2.587,0,0,1-.036.3q-.036.231-.071.5a4.245,4.245,0,0,1-.107.533q-.071.267-.107.373a2.25,2.25,0,0,0-.053.338,1.814,1.814,0,0,1-.089.409,3.536,3.536,0,0,0-.107.533.587.587,0,0,0-.178.2q-.107.16-.178.16l.32-3.412-.32-.036q-.036.107-.107.462a1.3,1.3,0,0,1-.178.5q0,.036-.124.071a.762.762,0,0,1-.2.036l.107-1.1Q6.756-23,5.938-23.14q-.711-.142-1.475-.284T3.2-23.673H3.06ZM20.082-8.5q-.036,0-.426.053a4.794,4.794,0,0,1-.533.053,1.777,1.777,0,0,0-.178-.249.716.716,0,0,1-.142-.213l.32-2.239a2.093,2.093,0,0,0-.409-.178q-.3-.107-.373-.142A1.109,1.109,0,0,1,18-11.75a1.392,1.392,0,0,1-.2-.3v-.426q.036-.142.089-.32a1.239,1.239,0,0,0,.053-.213,1.044,1.044,0,0,1,.036-.249.875.875,0,0,1,.142-.355q.036-.036.249-.338a1.384,1.384,0,0,1,.284-.338q.071-.107.178-.249.071-.107.124-.2a.826.826,0,0,1,.124-.16v-.462a1.128,1.128,0,0,1,.071-.32l.071-.213a2.283,2.283,0,0,0-.089-.391q-.089-.32-.16-.533.071-.107-.053-.64t-.16-.782q0-.071.018-.284t-.018-.249a2.254,2.254,0,0,1-.142-.409q-.071-.267-.142-.5a3.732,3.732,0,0,1-.107-.426,2.222,2.222,0,0,1-.036-.231q-.071-.178-.249-.586t-.355-.871q-.178-.462-.338-.853a3.6,3.6,0,0,1-.2-.569.936.936,0,0,0-.2-.391q-.2-.284-.267-.284a2.118,2.118,0,0,0-.284-.213q-.213-.142-.462-.3t-.462-.3a.991.991,0,0,0-.249-.142q-.036,0-.213-.284a4.974,4.974,0,0,0-.32-.462.437.437,0,0,0-.071-.2.437.437,0,0,1-.071-.2v-.178a.394.394,0,0,1,.018-.124.394.394,0,0,0,.018-.124.761.761,0,0,1,.053-.178.761.761,0,0,0,.053-.178.413.413,0,0,0,.071-.107.192.192,0,0,1,.071-.089q.036-.018.036-.089.036-.036.2-.249a.7.7,0,0,0,.16-.284,3.753,3.753,0,0,1,.373-.284,3.754,3.754,0,0,0,.373-.284.813.813,0,0,1,.32-.142,1.6,1.6,0,0,1,.32-.071l.213-.071q.071-.036.16-.071a.436.436,0,0,1,.16-.036h.178q.107.071.426.249t.355.284a1.625,1.625,0,0,1,.267.213l.426.391q.231.213.426.409l.267.267q.142.071.409.178a1.215,1.215,0,0,0,.409.107q.426.071,1.581.2t2.452.284l2.434.3q1.137.142,1.564.178a2.145,2.145,0,0,0,.729.213,5.393,5.393,0,0,0,.835.107,1.02,1.02,0,0,0,.533.249,2.515,2.515,0,0,1,.426.107q.071.036.3.142t.48.231q.249.124.5.231t.355.142a.473.473,0,0,1,.213.089.473.473,0,0,0,.213.089l.284.355q.142.178.213.178a2.513,2.513,0,0,0,.2.284.7.7,0,0,1,.16.284q0,.071-.018.32t-.018.391a.551.551,0,0,0-.107.391v.249a.554.554,0,0,1-.089.178q-.089.142-.2.32t-.231.355a2.02,2.02,0,0,1-.2.249q-.071.071-.213.249t-.213.249l-.533.533-.426.426q-.213.178-.782.622t-1.208.96q-.64.515-1.208.977t-.782.64a.15.15,0,0,1,.124.089.826.826,0,0,0,.124.16,2.427,2.427,0,0,1,.249.16,3.736,3.736,0,0,1,.355.284q.178.16.338.284a.485.485,0,0,0,.231.124,3.064,3.064,0,0,0,.391.3q.284.2.569.409t.551.391a2.641,2.641,0,0,1,.373.284.855.855,0,0,0,.213.213.892.892,0,0,1,.249.284,2.075,2.075,0,0,1,.373.267l.462.391q.231.2.409.373a1.3,1.3,0,0,1,.213.249.409.409,0,0,0,.124.213l.267.3.267.3q.124.142.124.178a1.794,1.794,0,0,1,.213.426.584.584,0,0,0-.036.178v.64a1.079,1.079,0,0,0-.249.3,2.72,2.72,0,0,1-.249.338,2.219,2.219,0,0,1-.426.373,2.428,2.428,0,0,1-.462.3,1.167,1.167,0,0,1-.355.178q-.284.107-.355.142h-.32a.824.824,0,0,1-.16-.018.823.823,0,0,0-.16-.018,4.079,4.079,0,0,1-.32-.391q-.213-.284-.444-.569T29.855-9.1a4.08,4.08,0,0,0-.32-.391q-.071,0-.338-.231t-.48-.409q0-.071-.178-.213t-.178-.213a5.587,5.587,0,0,1-.48-.338q-.3-.231-.6-.444t-.533-.373a3.137,3.137,0,0,1-.267-.2q-.071-.036-.32-.2l-.551-.355q-.3-.2-.569-.338t-.373-.213a.446.446,0,0,0-.178-.107.446.446,0,0,1-.178-.107l-.213-.107a.437.437,0,0,0-.2.071.928.928,0,0,0-.2.142.9.9,0,0,0-.391.213.9.9,0,0,1-.391.213,1.011,1.011,0,0,0-.213.178,1.012,1.012,0,0,1-.213.178,1.4,1.4,0,0,0-.142.409q-.071.3-.142.622t-.124.6a3.469,3.469,0,0,1-.089.391.761.761,0,0,1-.053.178q-.053.142-.107.3a2.3,2.3,0,0,1-.124.3.623.623,0,0,0-.071.178q-.036.071-.124.284t-.178.444q-.089.231-.178.444t-.124.284l-.178.178a.635.635,0,0,0-.178.178l.142-1.1a4.281,4.281,0,0,0-.249.515,4.5,4.5,0,0,0-.213.551,3.67,3.67,0,0,1-.053.444q-.053.338-.107.693t-.107.693a3.67,3.67,0,0,0-.053.444l-.284-.355Zm1.137-14.393q.036.213.178.8t.284,1.262q.142.675.284,1.262t.213.8a1.674,1.674,0,0,1,.089.267,3.674,3.674,0,0,1,.089.444q.036.249.053.462t.018.249l.107.32.071.213h.32q.142,0,.5.018t.764.053q.409.036.764.053a3.955,3.955,0,0,1,.533.053l.355-.178q.107-.071.338-.249t.5-.355q.267-.178.515-.338t.355-.231q.178-.142.586-.5T29-19.213q.462-.373.853-.693t.569-.462q.071,0,.16-.178a1,1,0,0,1,.16-.249q-.071,0-.2-.16a.485.485,0,0,1-.124-.231.882.882,0,0,1-.391-.231.882.882,0,0,0-.391-.231.682.682,0,0,0-.231-.089,4.486,4.486,0,0,1-.426-.142q-.231-.089-.5-.178a1.462,1.462,0,0,1-.409-.2q-.178-.036-.48-.124a2.011,2.011,0,0,0-.373-.089q-.178-.036-.32-.071a3.12,3.12,0,0,0-.462-.071H25.7q-.142.036-.2.249a.641.641,0,0,1-.124.284,1.329,1.329,0,0,1-.089.32,1.329,1.329,0,0,0-.089.32h-.142a5.306,5.306,0,0,0-.089-.657,5.076,5.076,0,0,1-.089-.693v-.071a.1.1,0,0,0-.036-.071H24.56q-.036.107-.178.551a2.737,2.737,0,0,0-.142.551.838.838,0,0,1-.107.355.858.858,0,0,0-.107.284h-.142l-.107-.107q0-.036-.036-.3a3.314,3.314,0,0,1-.036-.373,1.352,1.352,0,0,1-.053-.569A1.352,1.352,0,0,0,23.6-23.1l-2.239-.142ZM41.014-8.072a.473.473,0,0,1-.213-.089.473.473,0,0,0-.213-.089.313.313,0,0,0-.124-.124.15.15,0,0,1-.089-.124v-.533a1.378,1.378,0,0,0,.2-.373,1.379,1.379,0,0,1,.2-.373q.107-.142.391-.444a3.062,3.062,0,0,1,.391-.373q.071-.036.373-.2a1.116,1.116,0,0,1,.444-.16q.036,0,.32-.036t.6-.053q.32-.018.622-.053t.373-.036a1.608,1.608,0,0,1,.551-.124,1.608,1.608,0,0,0,.551-.124v-.533q0-.071-.018-.267t-.053-.426q-.036-.231-.053-.426t-.018-.267a1.3,1.3,0,0,1-.071-.32q-.036-.249-.071-.515t-.053-.515q-.018-.249-.018-.32a3.121,3.121,0,0,0-.089-.5,3.615,3.615,0,0,1-.089-.462,2.364,2.364,0,0,0-.338.32q-.231.249-.5.515t-.533.515a3.694,3.694,0,0,1-.373.32,1.7,1.7,0,0,1-.2.142q-.16.107-.338.231l-.355.249a2.424,2.424,0,0,1-.249.16,1.542,1.542,0,0,0-.409.178,1.135,1.135,0,0,0-.373.249l-.178.178a3.287,3.287,0,0,0-.124.746,3.286,3.286,0,0,1-.124.746.844.844,0,0,1-.036.231q-.036.124-.071.267l-.071.284h-.213v-2.274h-.142l-.426,1.1a.413.413,0,0,1-.107-.071l-.071-.071a1.39,1.39,0,0,0-.036-.2,3,3,0,0,1-.053-.32,2.287,2.287,0,0,0-.053-.3q-.036-.142-.071-.142,0-.036-.16-.124a3.716,3.716,0,0,0-.373-.178q-.213-.089-.391-.178t-.178-.124a1.152,1.152,0,0,1-.231-.2q-.16-.16-.338-.355l-.338-.373q-.16-.178-.231-.249-.071,0-.284-.426t-.355-.675a1.37,1.37,0,0,0-.071-.3,1.37,1.37,0,0,1-.071-.3,2.576,2.576,0,0,1-.124-.444,2.41,2.41,0,0,1-.053-.338l-.426-5.188q-.036,0-.2-.178t-.16-.249v-.533a2.445,2.445,0,0,1,.071-.373,2.445,2.445,0,0,0,.071-.373.325.325,0,0,0,.124-.2q.053-.16.089-.16a2.082,2.082,0,0,1,.249-.284q.178-.178.355-.373t.338-.355a1.151,1.151,0,0,0,.2-.231q.071-.036.373-.178a1.251,1.251,0,0,1,.409-.142h.142a.247.247,0,0,0,.107-.018.158.158,0,0,1,.071-.018l.284.036a1.164,1.164,0,0,1,.178.142.861.861,0,0,1,.107.124q.036.053.071.053a.455.455,0,0,0,.178.284.557.557,0,0,1,.107.142v5.615a1.885,1.885,0,0,0,.107.391,2.519,2.519,0,0,1,.107.32.79.79,0,0,0,.107.249,1.126,1.126,0,0,0,.053.32q.053.178.124.355a3.256,3.256,0,0,0,.178.426.773.773,0,0,0,.178.3q.178.231.249.338l.533.533a.446.446,0,0,0,.178.107,1.485,1.485,0,0,0,.249.071.641.641,0,0,0,.284.124q.213.053.249.124h.426q0-.071.16-.124a.593.593,0,0,0,.231-.124q0-.071.16-.2t.16-.2a1.824,1.824,0,0,0,.16-.249q.124-.213.267-.444a3.679,3.679,0,0,0,.249-.48,1.075,1.075,0,0,0,.107-.355,1.763,1.763,0,0,0,.213-.5l.213-.64a1.89,1.89,0,0,1,.053-.249q.053-.213.124-.48t.124-.515q.053-.249.089-.355a3.121,3.121,0,0,1,.071-.462,2.994,2.994,0,0,0,.071-.5,2.586,2.586,0,0,1,.036-.3q.036-.231.053-.5t.053-.515a3.042,3.042,0,0,0,.036-.32,4.4,4.4,0,0,0,.089-.622q.053-.515.089-1.119t.053-1.119q.018-.515.018-.622a3.314,3.314,0,0,1,.036-.373q.036-.267.053-.533t.053-.5a2.493,2.493,0,0,0,.036-.338,1.163,1.163,0,0,1,.071-.284q.071-.213.142-.249a1.485,1.485,0,0,1,.071-.249,1.378,1.378,0,0,1,.071-.178l.32-.32q.213-.213.426-.409t.391-.373l.249-.249.213-.071a1.128,1.128,0,0,1,.32-.071h.178a1.485,1.485,0,0,1,.249.071,1.379,1.379,0,0,0,.178.071q.036.071.089.2a.617.617,0,0,0,.124.2v2.345a8.721,8.721,0,0,0-.071.906q-.036.729-.071,1.564t-.053,1.564q-.018.729-.018.906V-18.8q0,.142.018.551t.053.871q.036.462.071.871t.071.586q0,.071.053.462t.107.853q.053.462.107.853t.053.462a2.41,2.41,0,0,0,.053.338,2.258,2.258,0,0,1,.053.409,1.959,1.959,0,0,1-.071.391,1.045,1.045,0,0,0-.036.249,1.888,1.888,0,0,1-.053.249.641.641,0,0,1-.124.284q.32.036,1.066.071t1.564.053q.817.018,1.564.053t1.031.071q.142,0,.622.053a4.739,4.739,0,0,1,.729.124,2.445,2.445,0,0,1,.373.071,2.445,2.445,0,0,0,.373.071.325.325,0,0,0,.2.124q.16.053.16.089.071.071.249.213t.178.213v.96a1.381,1.381,0,0,1-.071.178l-.071.213q-.071.071-.231.213t-.355.338q-.2.2-.373.355a.931.931,0,0,1-.284.2.554.554,0,0,0-.178.089.554.554,0,0,1-.178.089,1.379,1.379,0,0,0-.178.071.787.787,0,0,1-.249.036.4.4,0,0,1-.178-.036l-.142-.071a.732.732,0,0,1-.284-.142.948.948,0,0,1-.249-.178A2.179,2.179,0,0,0,52.9-8a2.445,2.445,0,0,0-.373-.071h-4.62q0,.142-.036.5t-.053.746q-.018.391-.053.746t-.036.462a1.083,1.083,0,0,1-.089.338.949.949,0,0,1-.16.3q0-.107-.018-.373l-.036-.533q-.018-.267-.053-.515a2.275,2.275,0,0,0-.071-.355,1.5,1.5,0,0,1-.036-.355,2.591,2.591,0,0,0-.036-.426q-.036-.249-.071-.533h-.32v2.879l-.32.355a3.252,3.252,0,0,0-.089-.355,2.04,2.04,0,0,1-.089-.426q0-.107-.018-.462t-.053-.746q-.036-.391-.053-.746t-.018-.5ZM68.768-1.853a2.95,2.95,0,0,1-.533-.089q-.391-.089-.426-.16a.232.232,0,0,1-.107-.107.545.545,0,0,1-.071-.213v-.213A2.134,2.134,0,0,1,67.7-2.99a.79.79,0,0,1,.107-.249,1.9,1.9,0,0,1,.2-.267q.16-.2.355-.391t.373-.391q.178-.2.249-.267v-.6q-.107-.249-.355-.8t-.533-1.262q-.284-.711-.586-1.475t-.586-1.475q-.284-.711-.5-1.262t-.32-.8q-.107-.284-.373-.942t-.533-1.4q-.267-.746-.515-1.386t-.355-.924v1.35a4.338,4.338,0,0,0,.036.48q.036.3.053.64t.053.64q.036.3.036.409a2.321,2.321,0,0,1,.107.338q.071.267.142.586t.124.6a2.558,2.558,0,0,1,.053.391v.96a2.089,2.089,0,0,1-.178.462,4.515,4.515,0,0,1-.249.5,3.62,3.62,0,0,1-.089.462,3.119,3.119,0,0,0-.089.5l-.142.178q-.071-.071-.2-.213t-.2-.213h-.249l-.32,2.345a.827.827,0,0,1-.142-.213.545.545,0,0,1-.071-.213,6.253,6.253,0,0,0-.089-.746,6.253,6.253,0,0,1-.089-.746.473.473,0,0,1-.213-.089.473.473,0,0,0-.213-.089,1.01,1.01,0,0,0-.178-.213A1.012,1.012,0,0,1,62.052-9q-.036-.107-.124-.409t-.178-.657q-.089-.355-.178-.657t-.124-.409q-.036-.071-.178-.426a3.409,3.409,0,0,1-.178-.533,1.241,1.241,0,0,0-.178-.373,2.354,2.354,0,0,0-.249-.373q-.036-.071-.142-.267t-.213-.409q-.107-.213-.213-.391t-.142-.249q-.107-.142-.338-.515t-.48-.782q-.249-.409-.48-.764t-.3-.462l-.249.178v5.366a4.286,4.286,0,0,0-.391.675q-.249.5-.32.675,0,.107-.018.444t-.053.729q-.036.391-.053.729t-.018.444a1.607,1.607,0,0,1-.089.391,1.608,1.608,0,0,0-.089.391,1.233,1.233,0,0,1-.16-.213.473.473,0,0,1-.089-.213,3.784,3.784,0,0,0-.036-.391q-.036-.284-.053-.586t-.053-.569A3.313,3.313,0,0,1,56.65-9h-.213a.79.79,0,0,1-.249.107,2.943,2.943,0,0,1-.32.071h-.533q-.071,0-.213-.16t-.213-.231q.036-.391.107-1.421t.142-2.2q.071-1.173.124-2.2t.053-1.457V-20.51a2.218,2.218,0,0,0-.036-.231q-.036-.2-.053-.409t-.053-.409a1.817,1.817,0,0,1-.036-.267,1.728,1.728,0,0,1-.124-.444.81.81,0,0,0-.124-.373,1.119,1.119,0,0,1-.124-.267q-.089-.231-.178-.5l-.16-.48a1.163,1.163,0,0,1-.071-.284v-.391q.036-.107.178-.426t.178-.32l.178-.178.3-.3q.16-.16.284-.3t.2-.213a1.311,1.311,0,0,0,.373-.16,1.311,1.311,0,0,1,.373-.16.319.319,0,0,0,.16-.053.319.319,0,0,1,.16-.053.319.319,0,0,1,.16.053.319.319,0,0,0,.16.053.1.1,0,0,1,.071.036l.107.107a1.247,1.247,0,0,0,.142.355q.142.284.3.622t.32.622a2.571,2.571,0,0,0,.2.32q.071.142.284.551t.462.871q.249.462.462.871t.284.586q.036.071.142.267t.231.409q.124.213.231.409a1.258,1.258,0,0,0,.178.267q.142.178.373.533a1.508,1.508,0,0,1,.231.426.114.114,0,0,0,.071.107.315.315,0,0,0,.142.036q0-.036.018-.249t.036-.462q.018-.249.053-.48a2.585,2.585,0,0,0,.036-.3q.036-.142.142-.711t.213-1.208q.107-.64.178-1.208t.071-.711q0-.107.036-.462t.053-.782q.018-.426.053-.782a2.691,2.691,0,0,1,.071-.462,3.186,3.186,0,0,1,.053-.373q.053-.3.089-.444a.554.554,0,0,1,.089-.178.554.554,0,0,0,.089-.178q.107-.107.3-.32t.409-.426q.213-.213.409-.373a.61.61,0,0,1,.267-.16.593.593,0,0,1,.249-.178.858.858,0,0,1,.284-.107h.426q.036,0,.089.107a.677.677,0,0,0,.124.178,1.486,1.486,0,0,0,.071.249,1.163,1.163,0,0,1,.071.284v2.879a2.9,2.9,0,0,0,.089.426,2.429,2.429,0,0,1,.089.533l.107.32q.071.213.142.444t.124.444a1.458,1.458,0,0,1,.053.32,4.592,4.592,0,0,0,.2.729,2.686,2.686,0,0,1,.16.622q.107.249.32.906t.462,1.4q.249.746.462,1.4t.32.906q.036.107.16.426t.249.657q.124.338.231.64t.142.373q.107.249.409,1.031t.711,1.83q.409,1.048.871,2.2T71.451-8.3q.409,1.013.729,1.777t.426,1.013a.436.436,0,0,0,.036.16q.036.089.071.16a.9.9,0,0,0,.107.213v.426a1.261,1.261,0,0,1-.089.249q-.089.213-.124.284a.473.473,0,0,1-.089.213.473.473,0,0,0-.089.213.819.819,0,0,0-.213.284q-.142.249-.213.249a.545.545,0,0,1-.071.213.546.546,0,0,0-.071.213q-.071.036-.124.249a1.65,1.65,0,0,1-.089.284l-.178-.32-.462.142V-.5l-.32.142L70.509-.5A2.7,2.7,0,0,1,70.4-1.2q-.036-.515-.036-.657Zm9.24-11.692a1.959,1.959,0,0,1-.071.391,1.961,1.961,0,0,0-.071.391.15.15,0,0,0-.124.089q-.053.089-.089.089,0,.142-.036.515t-.053.8q-.018.426-.053.835t-.036.551a2.058,2.058,0,0,0-.124.569,2.06,2.06,0,0,1-.124.569,1.382,1.382,0,0,1-.107.391,1.383,1.383,0,0,0-.107.391v-5.26a.965.965,0,0,1-.3-.071l-.391-.142a2.573,2.573,0,0,0-.373-.107q-.178-.036-.213,0a1.867,1.867,0,0,1-.178.284,4.751,4.751,0,0,0-.249.5,4.526,4.526,0,0,0-.2.515,1.475,1.475,0,0,1-.2.444q0,.036-.018.178t-.053.3q-.036.16-.053.3t-.018.178a.384.384,0,0,1-.089.2.384.384,0,0,0-.089.2,2.718,2.718,0,0,0-.284.231,5.022,5.022,0,0,0-.355.355q-.178.2-.355.355a.711.711,0,0,1-.213.16l-.711.426h-.249a.384.384,0,0,1-.2-.089,1.58,1.58,0,0,1-.2-.16.414.414,0,0,1-.071-.107.545.545,0,0,1-.071-.213v-.391a2.493,2.493,0,0,1,.071-.426q.071-.32.071-.355.071-.142.213-.515t.284-.782l.267-.764a2.476,2.476,0,0,1,.2-.462v-.355a4.1,4.1,0,0,1-.462-.053,1.842,1.842,0,0,1-.5-.124.546.546,0,0,0-.071-.213.545.545,0,0,1-.071-.213v-.213a2.937,2.937,0,0,1,.071-.32q.036-.142.071-.249l1.35-1.35a1.069,1.069,0,0,0,.178-.036q.142-.036.3-.089t.3-.107a.583.583,0,0,0,.178-.089,1.71,1.71,0,0,1,.178-.426q.178-.355.249-.533a5.84,5.84,0,0,1,.2-.711q.16-.5.355-1.066t.338-1.048q.142-.48.213-.693a.64.64,0,0,0,.089-.213q.053-.178.107-.391t.107-.409a1.675,1.675,0,0,1,.089-.267q.036-.142.107-.409t.142-.515q.071-.249.124-.444a1.54,1.54,0,0,0,.053-.231q0-.036.018-.657t.036-1.35q.018-.729.018-1.35v-.693a1.034,1.034,0,0,0,.16-.373,3.136,3.136,0,0,1,.124-.373,2.05,2.05,0,0,1,.178-.355q.178-.32.249-.426a.7.7,0,0,1,.16-.284.96.96,0,0,1,.231-.249.236.236,0,0,1,.053-.142.937.937,0,0,0,.089-.142,5.137,5.137,0,0,1,.444-.284,2.355,2.355,0,0,0,.373-.249,1.1,1.1,0,0,1,.213-.071,1.169,1.169,0,0,1,.355-.071h.391l.142.142v1.777l-.018.2q-.018.2-.053.426t-.053.444q-.018.213-.018.249v.746q0,.071.018.586t.036,1.137q.018.622.053,1.155t.036.6a3.123,3.123,0,0,0,.089.5,3.617,3.617,0,0,1,.089.462q.071.178.213.675t.213.711a5.13,5.13,0,0,0,.178.586l.3.871.3.871q.142.409.178.551.036.107.178.462a4.628,4.628,0,0,1,.178.5,2.576,2.576,0,0,0,.249.444.986.986,0,0,1,.178.338,1.166,1.166,0,0,1,.355.16,1.166,1.166,0,0,0,.355.16.825.825,0,0,0,.16.124q.089.053.089.089a2.861,2.861,0,0,0-.071.782,2.861,2.861,0,0,0,.071.782l.107.231q.107.231.249.551t.32.64q.178.32.284.5.036.071.231.657l.426,1.279q.231.693.426,1.3a4.406,4.406,0,0,0,.231.64,1.2,1.2,0,0,0,.213.426A1.867,1.867,0,0,0,85.9-8v.782a1.378,1.378,0,0,0-.2.373q-.124.3-.2.444l-.16.16-.284.284-.3.3-.213.213a.546.546,0,0,0-.213.071.545.545,0,0,1-.213.071h-.96a1.9,1.9,0,0,1-.355-.231q-.32-.231-.426-.3a.975.975,0,0,0-.089-.284A.975.975,0,0,1,82.2-6.4v-.64l-.142-.284a.82.82,0,0,1-.107-.231.442.442,0,0,0-.107-.2,7.839,7.839,0,0,1-.6-1.35q-.355-.96-.746-1.955-.426-1.173-.924-2.488ZM77.475-18.2l-.249.622a2.3,2.3,0,0,0-.178.551,1.888,1.888,0,0,1-.018.213,1.885,1.885,0,0,0-.018.213h.213a1.431,1.431,0,0,1,.5-.124,1.041,1.041,0,0,0,.462-.124v-.178a2.49,2.49,0,0,0-.16-.551,2.217,2.217,0,0,1-.16-.622q-.071,0-.124-.16t-.089-.16ZM93.928-7.788q-.142,0-.142-.036a.789.789,0,0,1-.142-.3,1.369,1.369,0,0,1-.071-.3q0-.036-.036-.284t-.053-.551q-.018-.3-.053-.551a2.882,2.882,0,0,1-.036-.355.975.975,0,0,0-.089-.284.512.512,0,0,0-.16-.249h-.178a1.96,1.96,0,0,1-.071.391,1.96,1.96,0,0,0-.071.391q-.071,0-.124.16a1.935,1.935,0,0,1-.089.231L92.187-10.7H90.908a4.63,4.63,0,0,0-.622.071,1.772,1.772,0,0,0-.551.142,2.606,2.606,0,0,0-.569.124,4.065,4.065,0,0,0-.569.2,2.585,2.585,0,0,1-.426.2q-.32.124-.657.267t-.657.284a3.384,3.384,0,0,0-.426.213l-.213.107A.5.5,0,0,1,86-9.138a.413.413,0,0,1-.107-.071l-.178-.178a.414.414,0,0,1-.071-.107.5.5,0,0,1-.036-.213v-.036a.1.1,0,0,1,.036-.071.413.413,0,0,0,.071-.107,1.542,1.542,0,0,1,.124-.426q.124-.32.2-.355l9.666-9.6.32-.6h-.32a1.415,1.415,0,0,0-.409.089,1.415,1.415,0,0,1-.409.089,6.047,6.047,0,0,1-.782.284q-.569.178-1.208.391t-1.208.409a7.409,7.409,0,0,0-.782.3q-.142.036-.515.178t-.515.178a.291.291,0,0,0-.178.107l-.071.071v3.127l-.391-.249v-2.63a1.36,1.36,0,0,1-.124.355,1.374,1.374,0,0,1-.2.355.17.17,0,0,1-.053.124.475.475,0,0,0-.089.124.15.15,0,0,0-.089-.124.15.15,0,0,1-.089-.124q-.071,0-.124-.16a.593.593,0,0,0-.124-.231h-.391a.682.682,0,0,1-.231.089q-.2.053-.426.124l-.409.124a1.239,1.239,0,0,1-.213.053,1.4,1.4,0,0,1-.5.178L85.9-17.6h-.6a.911.911,0,0,0-.2-.213q-.16-.142-.16-.213v-.355a2.137,2.137,0,0,1,.071-.355q.036-.142.071-.249.071-.107.3-.409a1.9,1.9,0,0,1,.338-.373q.071-.071.32-.284a1.125,1.125,0,0,1,.391-.249q.107-.071.426-.249a2.051,2.051,0,0,1,.355-.178,1.774,1.774,0,0,0,.213-.036,3.535,3.535,0,0,1,.373-.053,2.823,2.823,0,0,0,.355-.053,1.392,1.392,0,0,1,.2-.036,1.163,1.163,0,0,0,.284-.071.772.772,0,0,0,.284-.142q.107-.036.569-.213l.977-.373q.515-.2.977-.355a2.709,2.709,0,0,1,.569-.16q.32-.107.924-.32t1.244-.426l1.173-.391a6.8,6.8,0,0,0,.675-.249q.036,0,.355-.071t.693-.142q.373-.071.746-.16a4.276,4.276,0,0,0,.551-.16q.178-.071.533-.178a2.479,2.479,0,0,1,.426-.107h.782a1.336,1.336,0,0,1,.124.142.236.236,0,0,1,.053.142v.178a.584.584,0,0,0,.018.142.585.585,0,0,1,.018.142.825.825,0,0,1-.018.16.823.823,0,0,0-.018.16v.178a2.155,2.155,0,0,1-.16.355,1.794,1.794,0,0,1-.267.426l-.213.284q-.071.107-.16.231a1.58,1.58,0,0,1-.16.2,2.719,2.719,0,0,1-.231.284q-.16.178-.32.373t-.284.355a.613.613,0,0,0-.124.2q-.249.249-.764.782t-1.173,1.226q-.657.693-1.4,1.439t-1.4,1.421q-.657.675-1.191,1.226t-.782.8q.107,0,.409-.036t.64-.053q.338-.018.64-.053a4.238,4.238,0,0,1,.444-.036h1.528a3.041,3.041,0,0,1,.32.036q.249.036.551.053t.586.053a3.887,3.887,0,0,0,.462.036,4.361,4.361,0,0,1,.569.071,4.361,4.361,0,0,0,.569.071.9.9,0,0,0,.3.089q.267.053.569.124t.551.124a2.071,2.071,0,0,0,.32.053h.178a.446.446,0,0,1-.107-.178.545.545,0,0,1-.071-.213q-.071,0-.213-.249a1.765,1.765,0,0,0-.213-.32,1.581,1.581,0,0,1-.16-.2q-.089-.124-.16-.231l-.213-.284a2.928,2.928,0,0,0-.32-.355l-.551-.551q-.3-.3-.569-.533a1.633,1.633,0,0,1-.3-.3.473.473,0,0,0-.089-.213.473.473,0,0,1-.089-.213.975.975,0,0,1,.089-.284,1.26,1.26,0,0,0,.089-.249q.036-.071.178-.3t.178-.3a1.965,1.965,0,0,0,.3-.249q.231-.213.3-.284a.826.826,0,0,1,.16-.124.826.826,0,0,0,.16-.124,1.411,1.411,0,0,0,.213-.178h1.208a.539.539,0,0,1,.2.053.617.617,0,0,1,.2.124l.959.96a1.337,1.337,0,0,0,.2.32q.16.213.355.444a4.9,4.9,0,0,1,.338.444l.213.32q.249.355.782,1.137t1.084,1.617q.551.835,1.031,1.528a10.212,10.212,0,0,1,.586.906,2.518,2.518,0,0,0,.142.231,2.193,2.193,0,0,1,.2.373q.089.213.178.391a1.083,1.083,0,0,0,.124.213v.391a.771.771,0,0,0-.142.284.772.772,0,0,1-.142.284q-.071.071-.249.267t-.391.409l-.409.409-.267.267q-.107.036-.249.071a2.138,2.138,0,0,1-.355.071h-.533q-.178-.071-.622-.3t-.924-.462q-.48-.231-.906-.444l-.569-.284q-.107-.036-.391-.16t-.586-.231l-.6-.213a4.218,4.218,0,0,1-.444-.178.981.981,0,0,1-.2-.053l-.373-.124q-.213-.071-.409-.142t-.3-.107q-.142-.036-.391-.089l-.5-.107q-.249-.053-.462-.089t-.249-.036a1.1,1.1,0,0,0-.249-.071q-.178-.036-.391-.071t-.409-.053q-.2-.018-.231-.018-.142,0-.444.018t-.373.018Zm17.449-2.488a.556.556,0,0,1-.142.107,1.162,1.162,0,0,0-.124.071.219.219,0,0,1-.124.036q-.107.071-.249.178-.284.213-.32.249a3.256,3.256,0,0,0-.426.178l-.284.142a.436.436,0,0,0-.16.036.437.437,0,0,1-.16.036.436.436,0,0,1-.16-.036.436.436,0,0,0-.16-.036L109-9.387l-.071-.071v-.6l.018-.142q.018-.142.053-.3a3.008,3.008,0,0,0,.053-.32q.018-.16.018-.2a6.4,6.4,0,0,0,.142-.675q.071-.426.071-.5v-5.544q0-.036-.071-.089a1.336,1.336,0,0,1-.142-.124h-.142a.475.475,0,0,1-.2.071,3,3,0,0,1-.32.053,2.286,2.286,0,0,0-.3.053l-.142.036h-.96a.414.414,0,0,1-.107-.071.2.2,0,0,1-.071-.142l-.071-.071a.281.281,0,0,1-.036-.178.4.4,0,0,1,.036-.178l.071-.142a.584.584,0,0,1,.036-.178,1.51,1.51,0,0,1,.142-.213q.036-.071.178-.284t.178-.284q0-.071.178-.2a2.022,2.022,0,0,0,.249-.2q.071,0,.355-.249t.355-.32a.241.241,0,0,0,.178-.071.414.414,0,0,0,.071-.107v-.355a3.229,3.229,0,0,1-.089-.6q-.053-.533-.124-1.173t-.124-1.19a4.674,4.674,0,0,0-.089-.657l-.355-.711q-.071-.107-.213-.338t-.213-.231a2.315,2.315,0,0,0-.355-.444q-.284-.3-.355-.373a.911.911,0,0,1-.32-.16q-.249-.16-.32-.2l-.142-.178v-.782a1.311,1.311,0,0,1,.16-.373q.16-.3.2-.373a2.159,2.159,0,0,1,.373-.444l.373-.373a2.784,2.784,0,0,0,.444-.178q.3-.142.373-.178h.533a1.26,1.26,0,0,1,.249.089q.213.089.444.2t.426.178a.979.979,0,0,0,.267.071,5.46,5.46,0,0,0,.533.267,1.825,1.825,0,0,0,.426.16q.178.071.515.178t.711.231q.373.124.675.231t.373.142a2.138,2.138,0,0,1,.355.071q.284.071.657.178t.746.2a2.7,2.7,0,0,0,.586.089,2.9,2.9,0,0,1,.426.089,2.429,2.429,0,0,0,.533.089,1.755,1.755,0,0,0,.249.089q.178.053.355.089t.338.053q.16.018.2.018.249,0,.817.053t1.208.124q.64.071,1.208.124t.817.089l.071.071.071.071v.817l-.142.32q-.071.107-.213.284l-.284.355-.284.355q-.142.178-.178.213l-.391,7.569-.32.178v-7.356l-.142.071a.1.1,0,0,1-.071.036.031.031,0,0,0-.036.036,1.842,1.842,0,0,0-.071.515q-.036.48-.053,1.031t-.053,1l-.036.444q0,.071-.142.142l-.142.071v-3.34a4.083,4.083,0,0,0-.515-.071q-.373-.036-.782-.053t-.782-.053q-.373-.036-.515-.036a2.493,2.493,0,0,1-.338-.036q-.231-.036-.48-.053t-.462-.053a2.181,2.181,0,0,0-.284-.036q-.107-.036-.533-.124t-.906-.2q-.48-.107-.906-.178a4.662,4.662,0,0,0-.533-.071h-.142a2.18,2.18,0,0,1-.036.284q-.036.213.036.284,0,.036.018.515t.036,1.048q.018.569.053,1.048l.036.48q.213.036.746.071t1.119.071q.586.036,1.1.071t.729.071a2.444,2.444,0,0,1,.373.071,2.446,2.446,0,0,0,.373.071.727.727,0,0,0,.2.2q.16.124.16.2v.569a.437.437,0,0,1-.071.2.437.437,0,0,0-.071.2,3.482,3.482,0,0,1-.213.355,2.078,2.078,0,0,1-.178.213,1.524,1.524,0,0,1-.284.355l-.284.284q-.142.071-.444.2a1.542,1.542,0,0,1-.373.124.145.145,0,0,1-.107.036.5.5,0,0,1-.213.036,1.044,1.044,0,0,1-.249-.036.972.972,0,0,0-.213-.036,4.439,4.439,0,0,1-.462-.071,3.841,3.841,0,0,0-.5-.071h-.959v4.94q.107,0,.6-.071t.6-.071q.142,0,.551-.036t.871-.053q.462-.018.871-.053t.586-.036q-.071-.107-.249-.462a1.384,1.384,0,0,1-.178-.5,3.976,3.976,0,0,0-.071-.444,3.308,3.308,0,0,1-.071-.515v-.249a1.164,1.164,0,0,1,.071-.284,1.485,1.485,0,0,0,.071-.249,1.487,1.487,0,0,1,.071-.249.446.446,0,0,1,.107-.178,1.05,1.05,0,0,1,.213-.231q.178-.16.355-.338t.355-.338a2.726,2.726,0,0,1,.284-.231q.071-.036.2-.089a.617.617,0,0,0,.2-.124h.746a1.378,1.378,0,0,0,.071.178.559.559,0,0,0,.142.213,3.149,3.149,0,0,0,.071.409q.071.338.071.373.071.142.3.569t.3.569a1.839,1.839,0,0,0,.249.391q.213.284.284.391a1.051,1.051,0,0,0,.213.231q.178.16.355.338t.355.338a2.719,2.719,0,0,0,.284.231q.071.071.462.373t.5.409a2.116,2.116,0,0,0,.284.213.813.813,0,0,1,.249.213q.107.036.444.2t.729.338q.391.178.728.355t.444.249a1.327,1.327,0,0,1,.231.178q.16.142.16.178v.746a.575.575,0,0,1-.089.231q-.089.16-.124.16a2.717,2.717,0,0,1-.231.284q-.16.178-.338.355t-.338.355a1.05,1.05,0,0,1-.231.213.473.473,0,0,0-.213.089.473.473,0,0,1-.213.089h-.959a1.034,1.034,0,0,1-.249-.053l-.409-.124q-.231-.071-.426-.142a.845.845,0,0,1-.231-.107q-.284-.071-.764-.2t-.977-.231q-.5-.107-.871-.2a3.244,3.244,0,0,0-.444-.089.585.585,0,0,1-.178-.036,1.485,1.485,0,0,0-.249-.071.762.762,0,0,0-.178.053.761.761,0,0,1-.178.053,3.043,3.043,0,0,1-.036.32q-.036.249-.053.515t-.053.515a3.041,3.041,0,0,0-.036.32,3.118,3.118,0,0,1-.089.5,1.239,1.239,0,0,1-.16.462.473.473,0,0,1-.089.213.473.473,0,0,0-.089.213q0-.071-.018-.267t-.053-.409q-.036-.213-.053-.409t-.018-.3a1.371,1.371,0,0,1-.071-.338q-.036-.267-.071-.586t-.053-.6q-.018-.284-.018-.391l-.178-.178a.319.319,0,0,0-.16.053.319.319,0,0,1-.16.053V-4.3l-.249.96q-.071-.036-.142-.249a1.163,1.163,0,0,1-.071-.284,2.493,2.493,0,0,0-.036-.338q-.036-.231-.053-.5t-.053-.533a3.314,3.314,0,0,1-.036-.373q-.036-.249-.071-.906t-.053-1.4q-.018-.746-.053-1.4t-.071-.942Z" transform="translate(219 84)" fill="#fff"/></g></svg>