<svg xmlns="http://www.w3.org/2000/svg" width="26" height="24" viewBox="0 0 26 24">
  <g id="Favorites" opacity="0.2">
    <g id="Path" fill="none" stroke-miterlimit="10">
      <path d="M13,24l-1.82-1.826C4.42,16.174,0,12.13,0,7.174A7.06,7.06,0,0,1,7.15,0,7.8,7.8,0,0,1,13,2.739,7.8,7.8,0,0,1,18.85,0,7.06,7.06,0,0,1,26,7.174c0,4.957-4.42,9-11.18,15Z" stroke="none"/>
      <path d="M 13 20.81268692016602 L 13.22634983062744 20.58558082580566 L 13.27493953704834 20.53683090209961 L 13.32641983032227 20.49114036560059 C 16.81089019775391 17.3984203338623 19.41560935974121 15.04047966003418 21.2044506072998 12.85678005218506 C 22.96492004394531 10.7076997756958 23.75 8.955039978027344 23.75 7.173910140991211 C 23.75 4.366819858551025 21.64345932006836 2.25 18.85000038146973 2.25 C 17.31151962280273 2.25 15.72900009155273 2.993240118026733 14.72000980377197 4.189670085906982 L 13 6.229199886322021 L 11.27999019622803 4.189670085906982 C 10.27099990844727 2.993240118026733 8.688480377197266 2.25 7.150000095367432 2.25 C 4.356540203094482 2.25 2.25 4.366819858551025 2.25 7.173910140991211 C 2.25 8.955039978027344 3.035079956054688 10.7076997756958 4.795549869537354 12.85678005218506 C 6.584390163421631 15.04047966003418 9.189109802246094 17.3984203338623 12.67358016967773 20.49114036560059 L 12.72506046295166 20.53683090209961 L 12.77365016937256 20.58558082580566 L 13 20.81268692016602 M 13 24 L 11.18000030517578 22.17391014099121 C 4.420000076293945 16.17391014099121 -1.77635683940025e-15 12.13043022155762 -1.77635683940025e-15 7.173910140991211 C -1.77635683940025e-15 3.13043999671936 3.119999885559082 -1.77635683940025e-15 7.150000095367432 -1.77635683940025e-15 C 9.359999656677246 -1.77635683940025e-15 11.56999969482422 1.043480038642883 13 2.739130020141602 C 14.43000030517578 1.043480038642883 16.63999938964844 -1.77635683940025e-15 18.85000038146973 -1.77635683940025e-15 C 22.8799991607666 -1.77635683940025e-15 26 3.13043999671936 26 7.173910140991211 C 26 12.13043022155762 21.57999992370605 16.17391014099121 14.81999969482422 22.17391014099121 L 13 24 Z" stroke="none" fill="#0c0c0c"/>
    </g>
  </g>
</svg>
