<svg id="hamburger" xmlns="http://www.w3.org/2000/svg" width="20" height="16" viewBox="0 0 20 16">
  <path id="Line" d="M.625,2h18.75C19.72,2,20,1.552,20,1s-.28-1-.625-1H.625C.28,0,0,.448,0,1S.28,2,.625,2Z" fill="#fff"/>
  <path id="Line-2" data-name="Line" d="M12.594,0H.406C.182,0,0,.448,0,1S.182,2,.406,2H12.594C12.818,2,13,1.552,13,1S12.818,0,12.594,0Z" transform="translate(7 7)" fill="#fff"/>
  <path id="Line-3" data-name="Line" d="M5.813,0H.187C.084,0,0,.448,0,1S.084,2,.187,2H5.813C5.916,2,6,1.552,6,1S5.916,0,5.813,0Z" transform="translate(14 14)" fill="#fff"/>
</svg>
