<svg xmlns="http://www.w3.org/2000/svg" xmlns:xlink="http://www.w3.org/1999/xlink" width="23" height="24" viewBox="0 0 23 24">
  <defs>
    <clipPath id="clip-path">
      <path id="Path_3" data-name="Path 3" d="M23-13.291V-1.724A1.577,1.577,0,0,1,21.62,0H14.95a.793.793,0,0,1-.69-.862V-7.531a.793.793,0,0,0-.69-.862H9.43a.793.793,0,0,0-.69.862V-.862A.793.793,0,0,1,8.05,0H1.38A1.577,1.577,0,0,1,0-1.724V-13.291a.96.96,0,0,1,.253-.668l10.81-9.847a.6.6,0,0,1,.88,0l10.81,9.847A.982.982,0,0,1,23-13.291Z" fill="none" clip-rule="evenodd"/>
    </clipPath>
    <clipPath id="clip-path-2">
      <path id="Path_2" data-name="Path 2" d="M-50,38H325V-774H-50Z" fill="none"/>
    </clipPath>
    <clipPath id="clip-path-3">
      <path id="Path_8" data-name="Path 8" d="M23-13.291V-1.724A1.577,1.577,0,0,1,21.62,0H14.95a.793.793,0,0,1-.69-.862V-7.531a.793.793,0,0,0-.69-.862H9.43a.793.793,0,0,0-.69.862V-.862A.793.793,0,0,1,8.05,0H1.38A1.577,1.577,0,0,1,0-1.724V-13.291a.96.96,0,0,1,.253-.668l10.81-9.847a.6.6,0,0,1,.88,0l10.81,9.847A.982.982,0,0,1,23-13.291Z" fill="none"/>
    </clipPath>
    <clipPath id="clip-path-5">
      <rect id="Rectangle_1" data-name="Rectangle 1" width="23" height="25" transform="translate(0 -25)" fill="none"/>
    </clipPath>
    <clipPath id="clip-path-7">
      <path id="Path_5" data-name="Path 5" d="M0,0H23V-24H0Z" fill="none"/>
    </clipPath>
  </defs>
  <g id="Home" transform="translate(0 24)">
    <g id="Group_3" data-name="Group 3" clip-path="url(#clip-path)">
      <g id="Group_2" data-name="Group 2" clip-path="url(#clip-path-2)">
        <g id="Group_1" data-name="Group 1" transform="translate(0 -24)">
          <path id="Path_1" data-name="Path 1" d="M23,10.709V22.276A1.577,1.577,0,0,1,21.62,24H14.95a.793.793,0,0,1-.69-.862V16.469a.793.793,0,0,0-.69-.862H9.43a.793.793,0,0,0-.69.862v6.669A.793.793,0,0,1,8.05,24H1.38A1.577,1.577,0,0,1,0,22.276V10.709a.96.96,0,0,1,.253-.668L11.063.194a.6.6,0,0,1,.88,0l10.81,9.847A.982.982,0,0,1,23,10.709Z" fill="none" stroke="#0b0b0b" stroke-width="4.5"/>
        </g>
      </g>
    </g>
    <g id="Group_10" data-name="Group 10" clip-path="url(#clip-path-3)">
      <g id="Group_9" data-name="Group 9" clip-path="url(#clip-path-2)">
        <g id="Group_8" data-name="Group 8" style="isolation: isolate">
          <g id="Group_7" data-name="Group 7" clip-path="url(#clip-path-5)">
            <g id="Group_6" data-name="Group 6" clip-path="url(#clip-path)">
              <g id="Group_5" data-name="Group 5" clip-path="url(#clip-path-7)">
                <g id="Group_4" data-name="Group 4" transform="translate(0 -24)">
                  <path id="Path_4" data-name="Path 4" d="M23,10.709V22.276A1.577,1.577,0,0,1,21.62,24H14.95a.793.793,0,0,1-.69-.862V16.469a.793.793,0,0,0-.69-.862H9.43a.793.793,0,0,0-.69.862v6.669A.793.793,0,0,1,8.05,24H1.38A1.577,1.577,0,0,1,0,22.276V10.709a.96.96,0,0,1,.253-.668L11.063.194a.6.6,0,0,1,.88,0l10.81,9.847A.982.982,0,0,1,23,10.709Z" fill="none" stroke="#0b0b0b" stroke-width="4.5"/>
                </g>
              </g>
            </g>
          </g>
        </g>
      </g>
    </g>
  </g>
</svg>
