<svg xmlns="http://www.w3.org/2000/svg" width="36" height="36" viewBox="0 0 36 36"><g opacity="0.303"><path d="M18,36A18,18,0,0,1,10.993,1.414,18,18,0,0,1,25.007,34.586,17.888,17.888,0,0,1,18,36ZM5.09,28.313l-.036.018a16.639,16.639,0,0,0,26.027,0l-8.2-.021-3.652-2.571.021-14.4L22.86,8.71l4.057.04,1.744,1.255L29.25,8.73l2.66-.039a16.633,16.633,0,0,0-27.671,0h10l3.53,2.653.041,14.338-3.591,2.633H5.09ZM2.375,12.447A16.517,16.517,0,0,0,4.118,27.029l.018-.012.02-13.3ZM27.81,21.326H32.5v4.84l.011.076A16.568,16.568,0,0,0,33,10.561l-.015.234-.832,5.164-4.28-.02-.02-2.734-4.829.021,1.2.931v8.323c.172,1.034.428,1.285,1.44,1.417l2.171-.021-.02-2.55ZM11.443,13.208l-3.514.014,1.19.9v9.781l2.324-.014a1.435,1.435,0,0,0,1.32-1.289V14.655A1.4,1.4,0,0,0,11.443,13.208Z" fill="#fff"/></g></svg>