<svg xmlns="http://www.w3.org/2000/svg" width="2152.248" height="557.06" viewBox="0 0 2152.248 557.06"><path d="M152.628-79.856q.644-3.22.322-11.914t-.322-10.626a21.078,21.078,0,0,0-5.152,1.288q-3.864,1.288-4.508,2.576a30.338,30.338,0,0,1-4.83,1.61q-3.542.966-7.728,2.254t-7.728,2.576a17.494,17.494,0,0,1-5.474,1.288q-1.288,1.288-6.762,3.22t-6.762,3.22q-1.288,2.576-2.254,9.338T99.176-60.858Q97.888-53.452,96.6-46.69t-1.932,9.338v4.83q0,3.542-.322,7.728T93.7-17.066a15.352,15.352,0,0,1-.966,4.83,26.914,26.914,0,0,1-1.288,4.508Q90.16-3.864,88.872-3.22q-1.288,1.932-4.186,5.8a45.532,45.532,0,0,0-3.542,5.152q-1.288,1.288-7.084,6.44t-7.728,5.8q-1.288.644-5.474,3.22T54.74,25.76q-2.576.644-4.508,1.288a53.334,53.334,0,0,1-5.8,1.288L42.5,27.692H41.216a23.566,23.566,0,0,1-4.508-3.864l-2.576-2.576L42.5-76.636q-1.288.644-4.83,0t-7.406-1.61q-3.864-.966-7.084-1.932T19.32-82.432q-1.288-.644-5.152-4.83T9.016-92.736a6.39,6.39,0,0,0,.644-2.9v-2.9a14.924,14.924,0,0,1,.322-2.9,14.924,14.924,0,0,0,.322-2.9q0-1.288,3.542-6.44t5.474-6.44a24.076,24.076,0,0,1,3.22-4.186,73.773,73.773,0,0,1,5.8-5.8q3.22-2.9,5.8-5.474L38-136.528q-1.288-1.932-1.61-7.406t-1.61-6.762a46.144,46.144,0,0,0-.966-7.728q-.966-5.152-2.254-10.948T29.3-180a43.66,43.66,0,0,1-.966-6.118q-1.288-3.22-4.186-13.846t-4.186-13.846a22.526,22.526,0,0,0-1.61-6.44q-1.61-4.508-3.542-9.66t-3.864-9.982q-1.932-4.83-2.576-6.762.644-2.576-1.932-8.372t-3.864-7.084q0-1.288-3.542-8.05T-5.8-280.14a21.093,21.093,0,0,1-3.22-5.474,21.094,21.094,0,0,0-3.22-5.474q-1.288-1.288-4.83-5.474t-4.83-4.83q-.644-1.932-5.474-7.084t-6.118-5.152a16.885,16.885,0,0,1-2.9-1.932q-1.61-1.288-.966-2.576a21.668,21.668,0,0,1-3.22-5.152,57.289,57.289,0,0,0-3.22-5.8,27.073,27.073,0,0,0-.966-5.152,34.223,34.223,0,0,1-.966-4.508,47.362,47.362,0,0,0,1.932-5.152,47.376,47.376,0,0,1,1.932-5.152l3.864-5.8A38.371,38.371,0,0,1-34.132-360q2.576-1.932,8.694-6.118t6.762-4.83q1.288-1.288,7.084-4.186t7.084-2.254H2.576q1.288.644,3.542,1.932a7.928,7.928,0,0,0,3.542,1.288,35.612,35.612,0,0,0,4.508,5.474q3.864,4.186,8.05,9.016t7.728,8.694q3.542,3.864,4.83,4.508a36.326,36.326,0,0,0,6.44,4.186q5.152,2.9,7.084,4.186,2.576,1.288,9.982,4.508a56.291,56.291,0,0,1,9.982,5.152,22.527,22.527,0,0,1,6.44,1.61,93.283,93.283,0,0,0,9.982,2.9q5.474,1.288,10.626,2.9a29.147,29.147,0,0,0,7.084,1.61q4.508.644,14.812,3.22t13.524,2.576l22.54,3.22q18.032,2.576,38.64,5.474t38.962,5.8q18.354,2.9,22.862,4.186a35.49,35.49,0,0,1,6.44.966q4.508.966,9.338,1.932t9.66,1.61a60.051,60.051,0,0,0,6.762.644l5.152,2.576q5.152,2.576,7.728,2.576,1.932,0,6.118,1.932t5.474,2.576a38.285,38.285,0,0,0,6.118,4.186q4.83,2.9,4.83,4.186a13.188,13.188,0,0,1,3.542,3.542,13.189,13.189,0,0,0,3.542,3.542l1.932,3.864,1.288,2.576q-.644,1.288-.644,6.44v8.372a45.545,45.545,0,0,0-1.288,7.728q-.644,5.8-.644,6.44L327.8-225.4l-1.61,3.22-1.61,3.22q-1.288,1.932-4.186,7.084t-4.83,6.44a46.711,46.711,0,0,1-4.83,6.118q-4.186,4.83-5.474,6.118-3.22,2.576-9.338,7.728T283.36-174.524q-6.44,5.8-11.914,10.626t-6.762,6.118q-.644,0-4.508,2.254t-9.016,5.152q-5.152,2.9-9.982,5.8t-7.406,4.83l-5.8,2.9-5.8,2.9q-1.288,1.288-9.338,5.152t-17.066,8.05q-9.016,4.186-17.388,8.05a84.03,84.03,0,0,1-10.948,4.508,2.785,2.785,0,0,1-1.288,2.254q-1.288.966-1.288,1.61-.644,3.22-1.61,9.66t-1.61,13.524Q161-74.06,160.356-67.62t-.644,8.372q0,1.932-.322,7.084t-.644,10.626q-.322,5.474-.644,10.3t-.322,6.762Q155.2,7.084,153.272,19.32T150.7,30.59q-.644-.966-.966-12.236t0-25.76q.322-14.49.966-29.3t1.288-23.184q0-1.288.322-9.016T152.628-79.856ZM74.06-263.4q.644,4.508,2.9,15.134T82.11-225.4q2.9,12.236,5.152,23.184T90.8-186.76q.644,2.576,2.254,9.66t3.22,15.778q1.61,8.694,2.576,16.422a102.155,102.155,0,0,1,.966,10.948,5.716,5.716,0,0,0,2.576.644h3.22a2.858,2.858,0,0,1,1.288.322,4.484,4.484,0,0,0,1.932.322h1.932a32.391,32.391,0,0,0,4.83-1.288,24.83,24.83,0,0,1,5.474-1.288q3.22-1.288,9.016-3.22T141.68-142q5.8-1.61,9.982-2.9a32.394,32.394,0,0,1,4.83-1.288q2.576-.644,8.694-2.9t13.2-5.152q7.084-2.9,13.2-5.152t9.338-3.542q.644-1.288,8.05-4.508t9.982-5.8q1.932-.644,5.474-2.254t7.084-3.542q3.542-1.932,6.44-3.542a20.51,20.51,0,0,0,3.542-2.254q.644,0,3.542-1.932t6.44-4.186a76.921,76.921,0,0,0,6.762-4.83,21.976,21.976,0,0,0,4.508-4.508q1.288-.644,2.9-1.61a14.972,14.972,0,0,0,2.9-2.254,34.515,34.515,0,0,1,3.542-4.83q2.9-3.542,2.9-4.83l1.288-3.22a.569.569,0,0,1-.644-.644v-3.22a21.1,21.1,0,0,1-2.576-3.22q-2.576-3.864-2.576-4.508a21.245,21.245,0,0,0-3.542-1.288,8.011,8.011,0,0,1-3.542-1.932q-1.932,0-5.8-2.576a16.255,16.255,0,0,0-3.864-1.932q-3.864-.644-11.592-2.576a59.783,59.783,0,0,1-10.3-3.22l-5.474-.966q-5.474-.966-12.558-1.932t-14.49-1.932q-7.406-.966-11.914-1.61H182.9a46.886,46.886,0,0,1-.644,5.474q-.644,4.186-1.288,9.016a76.918,76.918,0,0,1-1.932,9.66q-1.288,4.83-1.932,6.762a40.768,40.768,0,0,0-.966,6.118,32.877,32.877,0,0,1-1.61,7.406,64.082,64.082,0,0,0-1.932,9.66,10.631,10.631,0,0,0-3.22,3.542q-1.932,2.9-3.22,2.9l5.8-61.824-5.8-.644q-.644,1.932-1.932,8.372T161-233.128q0,.644-2.254,1.288a13.814,13.814,0,0,1-3.542.644l1.932-19.964q-16.1-2.576-30.912-5.152-12.88-2.576-26.726-5.152t-22.862-4.508H74.06ZM351.624,9.016q-.644,0-7.728.966a86.879,86.879,0,0,1-9.66.966,32.208,32.208,0,0,0-3.22-4.508q-2.576-3.22-2.576-3.864L334.236-38a37.929,37.929,0,0,0-7.406-3.22q-5.474-1.932-6.762-2.576-2.576-1.288-6.118-6.118t-3.542-5.474v-7.728q.644-2.576,1.61-5.8a22.456,22.456,0,0,0,.966-3.864,18.922,18.922,0,0,1,.644-4.508q1.288-5.152,2.576-6.44.644-.644,4.508-6.118t5.152-6.118q1.288-1.932,3.22-4.508,1.288-1.932,2.254-3.542a14.97,14.97,0,0,1,2.254-2.9v-8.372a20.441,20.441,0,0,1,1.288-5.8l1.288-3.864a41.365,41.365,0,0,0-1.61-7.084q-1.61-5.8-2.9-9.66,1.288-1.932-.966-11.592t-2.9-14.168q0-1.288.322-5.152T327.8-177.1a40.848,40.848,0,0,1-2.576-7.406q-1.288-4.83-2.576-9.016a67.6,67.6,0,0,1-1.932-7.728,40.221,40.221,0,0,1-.644-4.186q-1.288-3.22-4.508-10.626t-6.44-15.778Q305.9-240.212,303-247.3a65.176,65.176,0,0,1-3.542-10.3q0-1.932-3.542-7.084t-4.83-5.152a38.378,38.378,0,0,0-5.152-3.864q-3.864-2.576-8.372-5.474t-8.372-5.474q-3.864-2.576-4.508-2.576t-3.864-5.152a90.152,90.152,0,0,0-5.8-8.372,7.927,7.927,0,0,0-1.288-3.542,7.927,7.927,0,0,1-1.288-3.542v-3.22a7.136,7.136,0,0,1,.322-2.254,7.135,7.135,0,0,0,.322-2.254,13.8,13.8,0,0,1,.966-3.22,13.8,13.8,0,0,0,.966-3.22,7.492,7.492,0,0,0,1.288-1.932,3.485,3.485,0,0,1,1.288-1.61q.644-.322.644-1.61.644-.644,3.542-4.508t2.9-5.152a68.007,68.007,0,0,1,6.762-5.152,68,68,0,0,0,6.762-5.152q1.288-1.288,5.8-2.576a29.008,29.008,0,0,1,5.8-1.288l3.864-1.288q1.288-.644,2.9-1.288a7.911,7.911,0,0,1,2.9-.644h3.22q1.932,1.288,7.728,4.508t6.44,5.152a29.436,29.436,0,0,1,4.83,3.864q3.542,3.22,7.728,7.084t7.728,7.406l4.83,4.83q2.576,1.288,7.406,3.22a22.011,22.011,0,0,0,7.406,1.932q7.728,1.288,28.658,3.542t44.436,5.152q23.506,2.9,44.114,5.474t28.336,3.22q2.576,1.932,13.2,3.864t15.134,1.932q3.22,3.22,9.66,4.508a45.567,45.567,0,0,1,7.728,1.932q1.288.644,5.474,2.576t8.694,4.186q4.508,2.254,9.016,4.186t6.44,2.576a8.567,8.567,0,0,1,3.864,1.61,8.566,8.566,0,0,0,3.864,1.61l5.152,6.44q2.576,3.22,3.864,3.22a45.546,45.546,0,0,0,3.542,5.152q2.9,3.864,2.9,5.152t-.322,5.8q-.322,4.508-.322,7.084-1.932,1.932-1.932,7.084v4.508a10.041,10.041,0,0,1-1.61,3.22q-1.61,2.576-3.542,5.8t-4.186,6.44a36.633,36.633,0,0,1-3.542,4.508q-1.288,1.288-3.864,4.508t-3.864,4.508l-9.66,9.66-7.728,7.728q-3.864,3.22-14.168,11.27t-21.9,17.388q-11.592,9.338-21.9,17.71t-14.168,11.592a2.717,2.717,0,0,1,2.254,1.61,14.97,14.97,0,0,0,2.254,2.9,43.918,43.918,0,0,1,4.508,2.9,67.655,67.655,0,0,1,6.44,5.152q3.22,2.9,6.118,5.152t4.186,2.254A55.522,55.522,0,0,0,521-95.634q5.152,3.542,10.3,7.406t9.982,7.084a47.852,47.852,0,0,1,6.762,5.152q.644,1.288,3.864,3.864a16.162,16.162,0,0,1,4.508,5.152,37.6,37.6,0,0,1,6.762,4.83l8.372,7.084q4.186,3.542,7.406,6.762a23.566,23.566,0,0,1,3.864,4.508q0,1.288,2.254,3.864t4.83,5.474q2.576,2.9,4.83,5.474t2.254,3.22a32.512,32.512,0,0,1,3.864,7.728,10.592,10.592,0,0,0-.644,3.22V-3.22q-1.288.644-4.508,5.474a49.332,49.332,0,0,1-4.508,6.118q-1.288,1.932-7.728,6.762t-8.372,5.474q-1.288,1.288-6.44,3.22t-6.44,2.576h-5.8a14.923,14.923,0,0,1-2.9-.322,14.923,14.923,0,0,0-2.9-.322,73.932,73.932,0,0,1-5.8-7.084q-3.864-5.152-8.05-10.3t-8.05-10.3a73.931,73.931,0,0,0-5.8-7.084q-1.288,0-6.118-4.186t-8.694-7.406q0-1.288-3.22-3.864t-3.22-3.864a101.273,101.273,0,0,1-8.694-6.118q-5.474-4.186-10.948-8.05t-9.66-6.762a56.883,56.883,0,0,1-4.83-3.542q-1.288-.644-5.8-3.542t-9.982-6.44q-5.474-3.542-10.3-6.118T434.7-72.772a8.084,8.084,0,0,0-3.22-1.932,8.083,8.083,0,0,1-3.22-1.932L424.4-78.568a7.927,7.927,0,0,0-3.542,1.288,16.817,16.817,0,0,0-3.542,2.576q-1.932,0-7.084,3.864t-7.084,3.864a18.328,18.328,0,0,0-3.864,3.22,18.327,18.327,0,0,1-3.864,3.22q-1.288,1.932-2.576,7.406t-2.576,11.27q-1.288,5.8-2.254,10.948a62.866,62.866,0,0,1-1.61,7.084,13.8,13.8,0,0,1-.966,3.22q-.966,2.576-1.932,5.474a41.73,41.73,0,0,1-2.254,5.474,11.3,11.3,0,0,0-1.288,3.22q-.644,1.288-2.254,5.152t-3.22,8.05q-1.61,4.186-3.22,8.05t-2.254,5.152l-3.22,3.22a11.5,11.5,0,0,0-3.22,3.22L365.148,6.44a77.592,77.592,0,0,0-4.508,9.338,81.451,81.451,0,0,0-3.864,9.982,66.5,66.5,0,0,1-.966,8.05q-.966,6.118-1.932,12.558t-1.932,12.558a66.508,66.508,0,0,0-.966,8.05l-5.152-6.44ZM372.232-251.8q.644,3.864,3.22,14.49t5.152,22.862q2.576,12.236,5.152,22.862t3.864,14.49a30.339,30.339,0,0,1,1.61,4.83,66.579,66.579,0,0,1,1.61,8.05q.644,4.508.966,8.372t.322,4.508l1.932,5.8,1.288,3.864h5.8q2.576,0,9.016.322t13.846.966q7.406.644,13.846.966a71.662,71.662,0,0,1,9.66.966l6.44-3.22q1.932-1.288,6.118-4.508t9.016-6.44q4.83-3.22,9.338-6.118t6.44-4.186q3.22-2.576,10.626-9.016t15.778-13.2q8.372-6.762,15.456-12.558t10.3-8.372q1.288,0,2.9-3.22a18.136,18.136,0,0,1,2.9-4.508q-1.288,0-3.542-2.9t-2.254-4.186q-1.932,0-7.084-4.186t-7.084-4.186q-.644-.644-4.186-1.61a81.29,81.29,0,0,1-7.728-2.576q-4.186-1.61-9.016-3.22a26.487,26.487,0,0,1-7.406-3.542q-3.22-.644-8.694-2.254a36.441,36.441,0,0,0-6.762-1.61q-3.22-.644-5.8-1.288a56.542,56.542,0,0,0-8.372-1.288H453.376q-2.576.644-3.542,4.508t-2.254,5.152a24.081,24.081,0,0,1-1.61,5.8,24.082,24.082,0,0,0-1.61,5.8h-2.576a96.178,96.178,0,0,0-1.61-11.914,91.976,91.976,0,0,1-1.61-12.558v-1.288a1.855,1.855,0,0,0-.644-1.288h-5.152q-.644,1.932-3.22,9.982t-2.576,9.982a15.189,15.189,0,0,1-1.932,6.44q-1.932,3.864-1.932,5.152h-2.576l-1.932-1.932q0-.644-.644-5.474a60.063,60.063,0,0,1-.644-6.762q-1.288-2.576-.966-10.3t-.966-10.3l-40.572-2.576Zm327.8,268.548a8.566,8.566,0,0,1-3.864-1.61,8.566,8.566,0,0,0-3.864-1.61,5.665,5.665,0,0,0-2.254-2.254,2.717,2.717,0,0,1-1.61-2.254V-.644q1.288-1.288,3.542-6.762t3.542-6.762q1.932-2.576,7.084-8.05a55.477,55.477,0,0,1,7.084-6.762q1.288-.644,6.762-3.542t8.05-2.9q.644,0,5.8-.644t10.948-.966q5.8-.322,11.27-.966t6.762-.644q1.932-1.288,9.982-2.254t9.982-2.254v-9.66q0-1.288-.322-4.83t-.966-7.728q-.644-4.186-.966-7.728t-.322-4.83a23.573,23.573,0,0,1-1.288-5.8q-.644-4.508-1.288-9.338t-.966-9.338q-.322-4.508-.322-5.8a56.572,56.572,0,0,0-1.61-9.016,65.542,65.542,0,0,1-1.61-8.372,42.854,42.854,0,0,0-6.118,5.8q-4.186,4.508-9.016,9.338t-9.66,9.338a66.928,66.928,0,0,1-6.762,5.8,30.867,30.867,0,0,1-3.542,2.576q-2.9,1.932-6.118,4.186l-6.44,4.508a43.912,43.912,0,0,1-4.508,2.9q-1.288,0-7.406,3.22t-6.762,4.508l-3.22,3.22q-1.288,3.22-2.254,13.524T695.52-43.148a15.3,15.3,0,0,1-.644,4.186q-.644,2.254-1.288,4.83L692.3-28.98h-3.864V-70.2H685.86l-7.728,19.964A7.493,7.493,0,0,1,676.2-51.52l-1.288-1.288a25.2,25.2,0,0,0-.644-3.542,54.393,54.393,0,0,1-.966-5.8,41.426,41.426,0,0,0-.966-5.474q-.644-2.576-1.288-2.576,0-.644-2.9-2.254a67.36,67.36,0,0,0-6.762-3.22q-3.864-1.61-7.084-3.22t-3.22-2.254a20.857,20.857,0,0,1-4.186-3.542q-2.9-2.9-6.118-6.44t-6.118-6.762q-2.9-3.22-4.186-4.508-1.288,0-5.152-7.728t-6.44-12.236a24.827,24.827,0,0,0-1.288-5.474,24.829,24.829,0,0,1-1.288-5.474,46.682,46.682,0,0,1-2.254-8.05,43.663,43.663,0,0,1-.966-6.118L605.36-241.5q-.644,0-3.542-3.22t-2.9-4.508v-9.66a44.314,44.314,0,0,1,1.288-6.762,44.308,44.308,0,0,0,1.288-6.762q1.288-.644,2.254-3.542t1.61-2.9A37.721,37.721,0,0,1,609.868-284q3.22-3.22,6.44-6.762t6.118-6.44a20.857,20.857,0,0,0,3.542-4.186q1.288-.644,6.762-3.22t7.406-2.576h2.576a4.484,4.484,0,0,0,1.932-.322,2.858,2.858,0,0,1,1.288-.322l5.152.644a21.1,21.1,0,0,1,3.22,2.576,15.608,15.608,0,0,1,1.932,2.254q.644.966,1.288.966a8.242,8.242,0,0,0,3.22,5.152,10.09,10.09,0,0,1,1.932,2.576v101.752a34.155,34.155,0,0,0,1.932,7.084,45.662,45.662,0,0,1,1.932,5.8,14.311,14.311,0,0,0,1.932,4.508,20.4,20.4,0,0,0,.966,5.8q.966,3.22,2.254,6.44a59.015,59.015,0,0,0,3.22,7.728q0,1.288,3.22,5.474t4.508,6.118l9.66,9.66a8.083,8.083,0,0,0,3.22,1.932,26.914,26.914,0,0,0,4.508,1.288q1.288,1.288,5.152,2.254t4.508,2.254h7.728q0-1.288,2.9-2.254a10.741,10.741,0,0,0,4.186-2.254q0-1.288,2.9-3.542t2.9-3.542a33.037,33.037,0,0,0,2.9-4.508q2.254-3.864,4.83-8.05a66.7,66.7,0,0,0,4.508-8.694q1.932-4.508,1.932-6.44,1.288-1.288,3.864-9.016l3.864-11.592a34.228,34.228,0,0,1,.966-4.508q.966-3.864,2.254-8.694t2.254-9.338q.966-4.508,1.61-6.44a56.524,56.524,0,0,1,1.288-8.372,54.278,54.278,0,0,0,1.288-9.016,46.89,46.89,0,0,1,.644-5.474q.644-4.186.966-9.016t.966-9.338a55.115,55.115,0,0,0,.644-5.8q.644-1.932,1.61-11.27t1.61-20.286q.644-10.948.966-20.286t.322-11.27a60.052,60.052,0,0,1,.644-6.762q.644-4.83.966-9.66t.966-9.016a45.187,45.187,0,0,0,.644-6.118,21.078,21.078,0,0,1,1.288-5.152q1.288-3.864,2.576-4.508a26.912,26.912,0,0,1,1.288-4.508,24.978,24.978,0,0,1,1.288-3.22l5.8-5.8q3.864-3.864,7.728-7.406t7.084-6.762l4.508-4.508,3.864-1.288a20.441,20.441,0,0,1,5.8-1.288h3.22a26.916,26.916,0,0,1,4.508,1.288,24.979,24.979,0,0,0,3.22,1.288q.644,1.288,1.61,3.542a11.185,11.185,0,0,0,2.254,3.542v42.5q-.644,3.22-1.288,16.422t-1.288,28.336q-.644,15.134-.966,28.336t-.322,16.422v81.144q0,2.576.322,9.982t.966,15.778q.644,8.372,1.288,15.778t1.288,10.626q0,1.288.966,8.372t1.932,15.456q.966,8.372,1.932,15.456t.966,8.372a43.663,43.663,0,0,0,.966,6.118,40.9,40.9,0,0,1,.966,7.406,35.506,35.506,0,0,1-1.288,7.084,18.916,18.916,0,0,0-.644,4.508,34.227,34.227,0,0,1-.966,4.508q-.966,3.864-2.254,5.152,5.8.644,19.32,1.288t28.336.966q14.812.322,28.336.966t18.676,1.288q2.576,0,11.27.966a85.87,85.87,0,0,1,13.2,2.254,44.315,44.315,0,0,1,6.762,1.288,44.31,44.31,0,0,0,6.762,1.288q.644,1.288,3.542,2.254t2.9,1.61q1.288,1.288,4.508,3.864t3.22,3.864V-3.864a24.987,24.987,0,0,1-1.288,3.22L975.66,3.22q-1.288,1.288-4.186,3.864t-6.44,6.118q-3.542,3.542-6.762,6.44a16.876,16.876,0,0,1-5.152,3.542,10.039,10.039,0,0,0-3.22,1.61,10.041,10.041,0,0,1-3.22,1.61,24.988,24.988,0,0,0-3.22,1.288,14.271,14.271,0,0,1-4.508.644,7.169,7.169,0,0,1-3.22-.644L933.156,26.4q-1.288,0-5.152-2.576a17.191,17.191,0,0,1-4.508-3.22,39.48,39.48,0,0,0-8.05-2.576,44.314,44.314,0,0,0-6.762-1.288h-83.72q0,2.576-.644,9.016t-.966,13.524q-.322,7.084-.966,13.524t-.644,8.372a19.63,19.63,0,0,1-1.61,6.118q-1.61,4.186-2.9,5.474,0-1.932-.322-6.762l-.644-9.66q-.322-4.83-.966-9.338a41.179,41.179,0,0,0-1.288-6.44,27.091,27.091,0,0,1-.644-6.44,46.933,46.933,0,0,0-.644-7.728q-.644-4.508-1.288-9.66h-5.8V68.908l-5.8,6.44a58.971,58.971,0,0,0-1.61-6.44,36.969,36.969,0,0,1-1.61-7.728q0-1.932-.322-8.372t-.966-13.524q-.644-7.084-.966-13.524t-.322-9.016Zm472.052,112.7a53.463,53.463,0,0,1-9.66-1.61q-7.084-1.61-7.728-2.9A4.212,4.212,0,0,1,1152.76,123a9.884,9.884,0,0,1-1.288-3.864v-3.864a38.716,38.716,0,0,1,1.288-6.44,14.31,14.31,0,0,1,1.932-4.508,34.515,34.515,0,0,1,3.542-4.83q2.9-3.542,6.44-7.084t6.762-7.084q3.22-3.542,4.508-4.83V69.552q-1.932-4.508-6.44-14.49t-9.66-22.862q-5.152-12.88-10.626-26.726t-10.626-26.726q-5.152-12.88-9.016-22.862t-5.8-14.49q-1.932-5.152-6.762-17.066t-9.66-25.438q-4.83-13.524-9.338-25.116t-6.44-16.744V-118.5a78.559,78.559,0,0,0,.644,8.694q.644,5.474.966,11.592t.966,11.592q.644,5.474.644,7.406a42.029,42.029,0,0,1,1.932,6.118q1.288,4.83,2.576,10.626t2.254,10.948a46.4,46.4,0,0,1,.966,7.084v17.388q0,1.288-3.22,8.372A81.784,81.784,0,0,1,1094.8-9.66a65.549,65.549,0,0,1-1.61,8.372,56.564,56.564,0,0,0-1.61,9.016L1089,10.948q-1.288-1.288-3.542-3.864T1081.92,3.22h-4.508l-5.8,42.5a14.984,14.984,0,0,1-2.576-3.864A9.884,9.884,0,0,1,1067.752,38a113.357,113.357,0,0,0-1.61-13.524,113.358,113.358,0,0,1-1.61-13.524,8.567,8.567,0,0,1-3.864-1.61,8.566,8.566,0,0,0-3.864-1.61,18.329,18.329,0,0,0-3.22-3.864A18.325,18.325,0,0,1,1050.364,0q-.644-1.932-2.254-7.406t-3.22-11.914q-1.61-6.44-3.22-11.914t-2.254-7.406q-.644-1.288-3.22-7.728a61.69,61.69,0,0,1-3.22-9.66q0-1.288-3.22-6.762a42.684,42.684,0,0,0-4.508-6.762q-.644-1.288-2.576-4.83t-3.864-7.406q-1.932-3.864-3.864-7.084t-2.576-4.508q-1.932-2.576-6.118-9.338t-8.694-14.168q-4.508-7.406-8.694-13.846t-5.474-8.372l-4.508,3.22V-38.64Q976.3-35.42,971.8-26.4T966-14.168q0,1.932-.322,8.05t-.966,13.2q-.644,7.084-.966,13.2t-.322,8.05a29.151,29.151,0,0,1-1.61,7.084A29.151,29.151,0,0,0,960.2,42.5a22.341,22.341,0,0,1-2.9-3.864,8.567,8.567,0,0,1-1.61-3.864,68.559,68.559,0,0,0-.644-7.084q-.644-5.152-.966-10.626t-.966-10.3A60.053,60.053,0,0,1,952.476,0h-3.864A14.313,14.313,0,0,1,944.1,1.932a53.333,53.333,0,0,1-5.8,1.288h-9.66q-1.288,0-3.864-2.9T920.92-3.864q.644-7.084,1.932-25.76t2.576-39.928q1.288-21.252,2.254-39.928t.966-26.4v-72.772a40.225,40.225,0,0,0-.644-4.186q-.644-3.542-.966-7.406t-.966-7.406a32.944,32.944,0,0,1-.644-4.83,31.317,31.317,0,0,1-2.254-8.05q-.966-5.474-2.254-6.762-.644-.644-2.254-4.83t-3.22-9.016l-2.9-8.694a21.077,21.077,0,0,1-1.288-5.152v-7.084q.644-1.932,3.22-7.728t3.22-5.8l3.22-3.22,5.474-5.474q2.9-2.9,5.152-5.474t3.542-3.864q1.288,0,6.762-2.9t6.762-2.9a5.774,5.774,0,0,0,2.9-.966,5.774,5.774,0,0,1,2.9-.966,5.774,5.774,0,0,1,2.9.966,5.774,5.774,0,0,0,2.9.966,1.856,1.856,0,0,1,1.288.644l1.932,1.932q0,1.288,2.576,6.44t5.474,11.27q2.9,6.118,5.8,11.27a46.668,46.668,0,0,0,3.542,5.8q1.288,2.576,5.152,9.982t8.372,15.778q4.508,8.372,8.372,15.778t5.152,10.626q.644,1.288,2.576,4.83t4.186,7.406q2.254,3.864,4.186,7.406a22.808,22.808,0,0,0,3.22,4.83q2.576,3.22,6.762,9.66t4.186,7.728a2.063,2.063,0,0,0,1.288,1.932,5.717,5.717,0,0,0,2.576.644q0-.644.322-4.508t.644-8.372q.322-4.508.966-8.694a46.893,46.893,0,0,0,.644-5.474q.644-2.576,2.576-12.88t3.864-21.9q1.932-11.592,3.22-21.9t1.288-12.88q0-1.932.644-8.372t.966-14.168q.322-7.728.966-14.168a48.811,48.811,0,0,1,1.288-8.372,57.818,57.818,0,0,1,.966-6.762q.966-5.474,1.61-8.05a10.04,10.04,0,0,1,1.61-3.22,10.039,10.039,0,0,0,1.61-3.22q1.932-1.932,5.474-5.8t7.406-7.728q3.864-3.864,7.406-6.762t4.83-2.9q.644-1.288,4.508-3.22t5.152-1.932h7.728q.644,0,1.61,1.932a12.259,12.259,0,0,0,2.254,3.22,26.913,26.913,0,0,0,1.288,4.508,21.076,21.076,0,0,1,1.288,5.152v52.164a52.514,52.514,0,0,0,1.61,7.728,44.035,44.035,0,0,1,1.61,9.66l1.932,5.8q1.288,3.864,2.576,8.05t2.254,8.05a26.421,26.421,0,0,1,.966,5.8,83.218,83.218,0,0,0,3.542,13.2q2.9,8.694,2.9,11.27,1.932,4.508,5.8,16.422t8.372,25.438q4.508,13.524,8.372,25.438t5.8,16.422q.644,1.932,2.9,7.728t4.508,11.914q2.254,6.118,4.186,11.592t2.576,6.762q1.932,4.508,7.406,18.676t12.88,33.166q7.406,19,15.778,39.928T1220.7,12.558q7.406,18.354,13.2,32.2t7.728,18.354a7.911,7.911,0,0,0,.644,2.9q.644,1.61,1.288,2.9a16.255,16.255,0,0,0,1.932,3.864V80.5a22.831,22.831,0,0,1-1.61,4.508q-1.61,3.864-2.254,5.152a8.566,8.566,0,0,1-1.61,3.864,8.566,8.566,0,0,0-1.61,3.864q-1.288.644-3.864,5.152t-3.864,4.508a9.886,9.886,0,0,1-1.288,3.864,9.884,9.884,0,0,0-1.288,3.864q-1.288.644-2.254,4.508a29.9,29.9,0,0,1-1.61,5.152l-3.22-5.8-8.372,2.576v32.2l-5.8,2.576-3.22-2.576q-1.288-3.22-1.932-12.558t-.644-11.914ZM1308.608-82.432a35.509,35.509,0,0,1-1.288,7.084,35.5,35.5,0,0,0-1.288,7.084,2.717,2.717,0,0,0-2.254,1.61q-.966,1.61-1.61,1.61,0,2.576-.644,9.338t-.966,14.49q-.322,7.728-.966,15.134t-.644,9.982q-1.288,2.576-2.254,10.3t-2.254,10.3q0,1.932-1.932,7.084t-1.932,7.084V-76.636a17.493,17.493,0,0,1-5.474-1.288l-7.084-2.576a46.61,46.61,0,0,0-6.762-1.932q-3.22-.644-3.864,0a33.837,33.837,0,0,1-3.22,5.152,86.1,86.1,0,0,0-4.508,9.016,81.947,81.947,0,0,0-3.542,9.338q-2.254,6.762-3.542,8.05,0,.644-.322,3.22t-.966,5.474q-.644,2.9-.966,5.474t-.322,3.22a6.964,6.964,0,0,1-1.61,3.542,6.963,6.963,0,0,0-1.61,3.542,49.286,49.286,0,0,0-5.152,4.186q-3.22,2.9-6.44,6.44a91.05,91.05,0,0,1-6.44,6.44q-3.22,2.9-3.864,2.9l-12.88,7.728H1207.5a6.965,6.965,0,0,1-3.542-1.61,28.62,28.62,0,0,1-3.542-2.9,7.492,7.492,0,0,1-1.288-1.932,9.884,9.884,0,0,1-1.288-3.864V-16.1a45.212,45.212,0,0,1,1.288-7.728q1.288-5.8,1.288-6.44,1.288-2.576,3.864-9.338t5.152-14.168q2.576-7.406,4.83-13.846a44.834,44.834,0,0,1,3.542-8.372v-6.44a74.3,74.3,0,0,1-8.372-.966q-6.44-.966-9.016-2.254a9.886,9.886,0,0,0-1.288-3.864,9.884,9.884,0,0,1-1.288-3.864v-3.864a53.319,53.319,0,0,1,1.288-5.8q.644-2.576,1.288-4.508l24.472-24.472a19.364,19.364,0,0,0,3.22-.644q2.576-.644,5.474-1.61t5.474-1.932a10.572,10.572,0,0,0,3.22-1.61q0-1.288,3.22-7.728T1250-155.2a105.836,105.836,0,0,1,3.542-12.88q2.9-9.016,6.44-19.32t6.118-19q2.576-8.694,3.864-12.558a11.607,11.607,0,0,0,1.61-3.864q.966-3.22,1.932-7.084t1.932-7.406a30.331,30.331,0,0,1,1.61-4.83q.644-2.576,1.932-7.406t2.576-9.338q1.288-4.508,2.254-8.05a27.915,27.915,0,0,0,.966-4.186q0-.644.322-11.914t.644-24.472q.322-13.2.322-24.472V-344.54q1.288-1.288,2.9-6.762a56.836,56.836,0,0,1,2.254-6.762q0-.644,3.22-6.44t4.508-7.728q0-1.288,2.9-5.152t4.186-4.508a4.282,4.282,0,0,1,.966-2.576,16.924,16.924,0,0,0,1.61-2.576,93.176,93.176,0,0,1,8.05-5.152,42.7,42.7,0,0,0,6.762-4.508,19.963,19.963,0,0,1,3.864-1.288,21.189,21.189,0,0,1,6.44-1.288h7.084l2.576,2.576v32.2l-.322,3.542q-.322,3.542-.966,7.728t-.966,8.05q-.322,3.864-.322,4.508v13.524q0,1.288.322,10.626t.644,20.608q.322,11.27.966,20.93t.644,10.948a56.563,56.563,0,0,0,1.61,9.016,65.537,65.537,0,0,1,1.61,8.372q1.288,3.22,3.864,12.236t3.864,12.88a93.032,93.032,0,0,0,3.22,10.626q2.576,7.406,5.474,15.778t5.474,15.778q2.576,7.406,3.22,9.982.644,1.932,3.22,8.372a83.794,83.794,0,0,1,3.22,9.016,46.693,46.693,0,0,0,4.508,8.05q3.22,4.83,3.22,6.118,1.288,0,6.44,2.9t6.44,2.9a14.969,14.969,0,0,0,2.9,2.254q1.61.966,1.61,1.61-1.288,3.864-1.288,14.168t1.288,14.168l1.932,4.186q1.932,4.186,4.508,9.982t5.8,11.592q3.22,5.8,5.152,9.016.644,1.288,4.186,11.914l7.728,23.184q4.186,12.558,7.728,23.506t4.186,11.592a21.793,21.793,0,0,0,3.864,7.728,33.848,33.848,0,0,0,3.22,5.152V32.2q-1.288,1.288-3.542,6.762t-3.542,8.05l-2.9,2.9-5.152,5.152-5.474,5.474L1427.1,64.4a9.886,9.886,0,0,0-3.864,1.288,9.885,9.885,0,0,1-3.864,1.288h-17.388q-.644,0-6.44-4.186t-7.728-5.474a17.67,17.67,0,0,0-1.61-5.152,17.664,17.664,0,0,1-1.61-5.152V35.42l-2.576-5.152a14.854,14.854,0,0,1-1.932-4.186,8.012,8.012,0,0,0-1.932-3.542q-4.508-7.084-10.948-24.472t-13.524-35.42q-7.728-21.252-16.744-45.08Zm-9.66-84.364-4.508,11.27q-3.22,8.05-3.22,9.982a34.152,34.152,0,0,1-.322,3.864,34.175,34.175,0,0,0-.322,3.864h3.864q1.932-1.288,9.016-2.254t8.372-2.254v-3.22q0-1.932-2.9-9.982t-2.9-11.27q-1.288,0-2.254-2.9t-1.61-2.9ZM1566.208,21.9q-2.576,0-2.576-.644-1.288-1.288-2.576-5.474a24.829,24.829,0,0,1-1.288-5.474q0-.644-.644-5.152t-.966-9.982q-.322-5.474-.966-9.982a52.287,52.287,0,0,1-.644-6.44,17.664,17.664,0,0,0-1.61-5.152q-1.61-3.864-2.9-4.508h-3.22a35.51,35.51,0,0,1-1.288,7.084,35.491,35.491,0,0,0-1.288,7.084q-1.288,0-2.254,2.9a35.12,35.12,0,0,1-1.61,4.186l-7.728-21.252h-23.184a83.9,83.9,0,0,0-11.27,1.288q-8.05,1.288-9.982,2.576-2.576,0-10.3,2.254a73.67,73.67,0,0,0-10.3,3.542,46.856,46.856,0,0,1-7.728,3.542q-5.8,2.254-11.914,4.83t-11.914,5.152a61.351,61.351,0,0,0-7.728,3.864l-3.864,1.932a8.969,8.969,0,0,1-3.864-.644,7.492,7.492,0,0,1-1.932-1.288l-3.22-3.22a7.492,7.492,0,0,1-1.288-1.932,8.969,8.969,0,0,1-.644-3.864v-.644a1.856,1.856,0,0,1,.644-1.288,7.492,7.492,0,0,0,1.288-1.932q0-1.932,2.254-7.728t3.542-6.44l175.168-173.88,5.8-10.948h-5.8a25.648,25.648,0,0,0-7.406,1.61,25.647,25.647,0,0,1-7.406,1.61,109.566,109.566,0,0,1-14.168,5.152q-10.3,3.22-21.9,7.084t-21.9,7.406a134.309,134.309,0,0,0-14.168,5.474q-2.576.644-9.338,3.22t-9.338,3.22q-1.288,0-3.22,1.932l-1.288,1.288v56.672l-7.084-4.508v-47.656q0,1.288-2.254,6.44t-3.542,6.44a3.089,3.089,0,0,1-.966,2.254,8.594,8.594,0,0,0-1.61,2.254,2.717,2.717,0,0,0-1.61-2.254,2.717,2.717,0,0,1-1.61-2.254q-1.288,0-2.254-2.9a10.742,10.742,0,0,0-2.254-4.186h-7.084q-.644.644-4.186,1.61t-7.728,2.254q-4.186,1.288-7.406,2.254a22.449,22.449,0,0,1-3.864.966,25.387,25.387,0,0,1-9.016,3.22l-5.152,1.288h-10.948a16.508,16.508,0,0,0-3.542-3.864q-2.9-2.576-2.9-3.864v-6.44a38.725,38.725,0,0,1,1.288-6.44q.644-2.576,1.288-4.508,1.288-1.932,5.474-7.406t6.118-6.762q1.288-1.288,5.8-5.152t7.084-4.508q1.932-1.288,7.728-4.508t6.44-3.22a32.132,32.132,0,0,0,3.864-.644,64.052,64.052,0,0,1,6.762-.966,51.161,51.161,0,0,0,6.44-.966,25.213,25.213,0,0,1,3.542-.644,21.079,21.079,0,0,0,5.152-1.288,13.979,13.979,0,0,0,5.152-2.576q1.932-.644,10.3-3.864t17.71-6.762q9.338-3.542,17.71-6.44t10.3-2.9q5.8-1.932,16.744-5.8t22.54-7.728l21.252-7.084a123.245,123.245,0,0,0,12.236-4.508q.644,0,6.44-1.288t12.558-2.576q6.762-1.288,13.524-2.9a77.465,77.465,0,0,0,9.982-2.9q3.22-1.288,9.66-3.22t7.728-1.932h14.168a24.165,24.165,0,0,1,2.254,2.576,4.282,4.282,0,0,1,.966,2.576v3.22a10.589,10.589,0,0,0,.322,2.576,10.583,10.583,0,0,1,.322,2.576,14.92,14.92,0,0,1-.322,2.9,14.928,14.928,0,0,0-.322,2.9v3.22q0,.644-2.9,6.44t-4.83,7.728l-3.864,5.152q-1.288,1.932-2.9,4.186a28.627,28.627,0,0,1-2.9,3.542,49.269,49.269,0,0,1-4.186,5.152q-2.9,3.22-5.8,6.762t-5.152,6.44q-2.254,2.9-2.254,3.542-4.508,4.508-13.846,14.168t-21.252,22.218q-11.914,12.558-25.438,26.082t-25.438,25.76q-11.914,12.236-21.574,22.218t-14.168,14.49q1.932,0,7.406-.644t11.592-.966q6.118-.322,11.592-.966a76.79,76.79,0,0,1,8.05-.644h27.692a55.115,55.115,0,0,1,5.8.644q4.508.644,9.982.966t10.626.966a70.448,70.448,0,0,0,8.372.644,79.026,79.026,0,0,1,10.3,1.288,79.022,79.022,0,0,0,10.3,1.288q.644.644,5.474,1.61t10.3,2.254q5.474,1.288,9.982,2.254a37.54,37.54,0,0,0,5.8.966h3.22a8.082,8.082,0,0,1-1.932-3.22,9.884,9.884,0,0,1-1.288-3.864q-1.288,0-3.864-4.508a32.05,32.05,0,0,0-3.864-5.8,28.627,28.627,0,0,1-2.9-3.542q-1.61-2.254-2.9-4.186l-3.864-5.152a53.008,53.008,0,0,0-5.8-6.44l-9.982-9.982q-5.474-5.474-10.3-9.66t-5.474-5.474a8.566,8.566,0,0,0-1.61-3.864,8.566,8.566,0,0,1-1.61-3.864,17.665,17.665,0,0,1,1.61-5.152,22.831,22.831,0,0,0,1.61-4.508q.644-1.288,3.22-5.474t3.22-5.474a35.615,35.615,0,0,0,5.474-4.508q4.186-3.864,5.474-5.152a14.968,14.968,0,0,1,2.9-2.254,14.974,14.974,0,0,0,2.9-2.254,25.585,25.585,0,0,0,3.864-3.22h21.9a9.772,9.772,0,0,1,3.542.966,11.186,11.186,0,0,1,3.542,2.254l17.388,17.388a24.224,24.224,0,0,0,3.542,5.8q2.9,3.864,6.44,8.05a88.921,88.921,0,0,1,6.118,8.05l3.864,5.8q4.508,6.44,14.168,20.608t19.642,29.3q9.982,15.134,18.676,27.692t10.626,16.422a45.684,45.684,0,0,0,2.576,4.186,39.735,39.735,0,0,1,3.542,6.762q1.61,3.864,3.22,7.084a19.672,19.672,0,0,0,2.254,3.864V-9.66a13.978,13.978,0,0,0-2.576,5.152,13.978,13.978,0,0,1-2.576,5.152q-1.288,1.288-4.508,4.83t-7.084,7.406l-7.406,7.406-4.83,4.83q-1.932.644-4.508,1.288a38.725,38.725,0,0,1-6.44,1.288h-9.66q-3.22-1.288-11.27-5.474T1719.8,13.846q-8.694-4.186-16.422-8.05l-10.3-5.152q-1.932-.644-7.084-2.9T1675.366-6.44L1664.418-10.3a76.405,76.405,0,0,1-8.05-3.22,17.764,17.764,0,0,1-3.542-.966l-6.762-2.254q-3.864-1.288-7.406-2.576t-5.474-1.932q-2.576-.644-7.084-1.61l-9.016-1.932q-4.508-.966-8.372-1.61t-4.508-.644a19.966,19.966,0,0,0-4.508-1.288q-3.22-.644-7.084-1.288t-7.406-.966q-3.542-.322-4.186-.322-2.576,0-8.05.322t-6.762.322ZM1851.5-23.184a10.091,10.091,0,0,1-2.576,1.932,21.036,21.036,0,0,0-2.254,1.288,3.968,3.968,0,0,1-2.254.644q-1.932,1.288-4.508,3.22-5.152,3.864-5.8,4.508a59.014,59.014,0,0,0-7.728,3.22L1821.232-5.8a7.91,7.91,0,0,0-2.9.644,7.91,7.91,0,0,1-2.9.644,7.91,7.91,0,0,1-2.9-.644,7.91,7.91,0,0,0-2.9-.644l-1.288-1.288-1.288-1.288V-19.32l.322-2.576q.322-2.576.966-5.474a54.408,54.408,0,0,0,.966-5.8q.322-2.9.322-3.542a116.1,116.1,0,0,0,2.576-12.236q1.288-7.728,1.288-9.016V-158.424q0-.644-1.288-1.61a24.167,24.167,0,0,1-2.576-2.254h-2.576a8.605,8.605,0,0,1-3.542,1.288,54.387,54.387,0,0,1-5.8.966,41.443,41.443,0,0,0-5.474.966l-2.576.644h-17.388a7.492,7.492,0,0,1-1.932-1.288,3.711,3.711,0,0,1-1.288-2.576l-1.288-1.288q-.644-.644-.644-3.22a7.169,7.169,0,0,1,.644-3.22l1.288-2.576a10.6,10.6,0,0,1,.644-3.22,27.383,27.383,0,0,1,2.576-3.864q.644-1.288,3.22-5.152t3.22-5.152q0-1.288,3.22-3.542a36.646,36.646,0,0,0,4.508-3.542q1.288,0,6.44-4.508t6.44-5.8a4.369,4.369,0,0,0,3.22-1.288,7.492,7.492,0,0,0,1.288-1.932v-6.44q-.644-1.288-1.61-10.948t-2.254-21.252q-1.288-11.592-2.254-21.574t-1.61-11.914l-6.44-12.88q-1.288-1.932-3.864-6.118t-3.864-4.186q-1.288-2.576-6.44-8.05t-6.44-6.762q-1.288,0-5.8-2.9t-5.8-3.542l-2.576-3.22V-344.54q0-1.288,2.9-6.762t3.542-6.762q1.288-2.576,6.762-8.05l6.762-6.762a50.449,50.449,0,0,0,8.05-3.22q5.474-2.576,6.762-3.22h9.66a22.84,22.84,0,0,1,4.508,1.61q3.864,1.61,8.05,3.542t7.728,3.22a17.731,17.731,0,0,0,4.83,1.288,98.944,98.944,0,0,0,9.66,4.83q6.44,2.9,7.728,2.9,3.22,1.288,9.338,3.22t12.88,4.186q6.762,2.254,12.236,4.186t6.762,2.576a38.73,38.73,0,0,1,6.44,1.288q5.152,1.288,11.914,3.22t13.524,3.542a48.993,48.993,0,0,0,10.626,1.61,52.53,52.53,0,0,1,7.728,1.61,44.037,44.037,0,0,0,9.66,1.61,31.762,31.762,0,0,0,4.508,1.61q3.22.966,6.44,1.61t6.118.966q2.9.322,3.542.322,4.508,0,14.812.966t21.9,2.254q11.592,1.288,21.9,2.254t14.812,1.61L2038.26-322l1.288,1.288V-305.9l-2.576,5.8q-1.288,1.932-3.864,5.152l-5.152,6.44-5.152,6.44q-2.576,3.22-3.22,3.864L2012.5-141.036l-5.8,3.22V-271.124l-2.576,1.288a1.855,1.855,0,0,1-1.288.644.569.569,0,0,0-.644.644q-.644.644-1.288,9.338t-.966,18.676q-.322,9.982-.966,18.032l-.644,8.05q0,1.288-2.576,2.576l-2.576,1.288v-60.536a74.009,74.009,0,0,0-9.338-1.288q-6.762-.644-14.168-.966t-14.168-.966q-6.762-.644-9.338-.644a45.178,45.178,0,0,1-6.118-.644q-4.186-.644-8.694-.966t-8.372-.966a39.526,39.526,0,0,0-5.152-.644q-1.932-.644-9.66-2.254T1891.75-284q-8.694-1.932-16.422-3.22a84.5,84.5,0,0,0-9.66-1.288h-2.576a39.518,39.518,0,0,1-.644,5.152q-.644,3.864.644,5.152,0,.644.322,9.338t.644,19q.322,10.3.966,19l.644,8.694q3.864.644,13.524,1.288t20.286,1.288q10.626.644,19.964,1.288t13.2,1.288a44.312,44.312,0,0,1,6.762,1.288,44.307,44.307,0,0,0,6.762,1.288,13.19,13.19,0,0,0,3.542,3.542q2.9,2.254,2.9,3.542v10.3a7.927,7.927,0,0,1-1.288,3.542,7.926,7.926,0,0,0-1.288,3.542,62.992,62.992,0,0,1-3.864,6.44,37.647,37.647,0,0,1-3.22,3.864,27.626,27.626,0,0,1-5.152,6.44l-5.152,5.152q-2.576,1.288-8.05,3.542t-6.762,2.254a2.624,2.624,0,0,1-1.932.644,8.969,8.969,0,0,1-3.864.644,18.921,18.921,0,0,1-4.508-.644,17.618,17.618,0,0,0-3.864-.644,80.446,80.446,0,0,1-8.372-1.288,69.6,69.6,0,0,0-9.016-1.288h-17.388v89.516q1.932,0,10.948-1.288t10.948-1.288q2.576,0,9.982-.644t15.778-.966q8.372-.322,15.778-.966t10.626-.644q-1.288-1.932-4.508-8.372t-3.22-9.016a72.056,72.056,0,0,0-1.288-8.05,59.894,59.894,0,0,1-1.288-9.338v-4.508a21.079,21.079,0,0,1,1.288-5.152,26.915,26.915,0,0,0,1.288-4.508,26.908,26.908,0,0,1,1.288-4.508,8.082,8.082,0,0,1,1.932-3.22A19.036,19.036,0,0,1,1942.3-142q3.22-2.9,6.44-6.118t6.44-6.118a49.276,49.276,0,0,1,5.152-4.186q1.288-.644,3.542-1.61a11.188,11.188,0,0,0,3.542-2.254h13.524a24.985,24.985,0,0,0,1.288,3.22,10.138,10.138,0,0,0,2.576,3.864,57.049,57.049,0,0,0,1.288,7.406q1.288,6.118,1.288,6.762,1.288,2.576,5.474,10.3t5.474,10.3q.644,1.932,4.508,7.084t5.152,7.084a19.036,19.036,0,0,0,3.864,4.186q3.22,2.9,6.44,6.118t6.44,6.118a49.274,49.274,0,0,0,5.152,4.186q1.288,1.288,8.372,6.762t9.016,7.406a38.384,38.384,0,0,0,5.152,3.864q3.864,2.576,4.508,3.864,1.932.644,8.05,3.542t13.2,6.118q7.084,3.22,13.2,6.44t8.05,4.508a24.072,24.072,0,0,1,4.186,3.22q2.9,2.576,2.9,3.22v13.524a10.42,10.42,0,0,1-1.61,4.186q-1.61,2.9-2.254,2.9a49.29,49.29,0,0,1-4.186,5.152q-2.9,3.22-6.118,6.44t-6.118,6.44a19.034,19.034,0,0,1-4.186,3.864,8.566,8.566,0,0,0-3.864,1.61,8.566,8.566,0,0,1-3.864,1.61h-17.388a18.753,18.753,0,0,1-4.508-.966q-3.22-.966-7.406-2.254t-7.728-2.576a15.3,15.3,0,0,1-4.186-1.932Q2027.956,0,2019.262-2.254t-17.71-4.186q-9.016-1.932-15.778-3.542a58.792,58.792,0,0,0-8.05-1.61,10.6,10.6,0,0,1-3.22-.644A26.916,26.916,0,0,0,1970-13.524a13.8,13.8,0,0,0-3.22.966,13.8,13.8,0,0,1-3.22.966,55.122,55.122,0,0,1-.644,5.8q-.644,4.508-.966,9.338t-.966,9.338a55.108,55.108,0,0,0-.644,5.8,56.564,56.564,0,0,1-1.61,9.016q-1.61,7.084-2.9,8.372a8.566,8.566,0,0,1-1.61,3.864,8.566,8.566,0,0,0-1.61,3.864q0-1.288-.322-4.83t-.966-7.406q-.644-3.864-.966-7.406t-.322-5.474a24.834,24.834,0,0,1-1.288-6.118q-.644-4.83-1.288-10.626t-.966-10.948q-.322-5.152-.322-7.084l-3.22-3.22a5.774,5.774,0,0,0-2.9.966,5.774,5.774,0,0,1-2.9.966v102.4l-4.508,17.388q-1.288-.644-2.576-4.508a21.079,21.079,0,0,1-1.288-5.152,45.19,45.19,0,0,0-.644-6.118q-.644-4.186-.966-9.016t-.966-9.66a60.029,60.029,0,0,1-.644-6.762q-.644-4.508-1.288-16.422t-.966-25.438q-.322-13.524-.966-25.438t-1.288-17.066Z" transform="translate(45.724 400.568)" fill="#fff"/></svg>